<svg width="80" height="80" viewBox="0 0 80 80" fill="none" xmlns="http://www.w3.org/2000/svg">
<path d="M0 40C0 17.9086 17.9086 0 40 0C62.0914 0 80 17.9086 80 40V80H40C17.9086 80 0 62.0914 0 40Z" fill="#3E5693"/>
<path d="M50.6666 26.6667H29.3333C27.8666 26.6667 26.68 27.8667 26.68 29.3334L26.6666 53.3334L32 48H50.6666C52.1333 48 53.3333 46.8 53.3333 45.3334V29.3334C53.3333 27.8667 52.1333 26.6667 50.6666 26.6667ZM33.3333 36H46.6666C47.4 36 48 36.6 48 37.3334C48 38.0667 47.4 38.6667 46.6666 38.6667H33.3333C32.6 38.6667 32 38.0667 32 37.3334C32 36.6 32.6 36 33.3333 36ZM41.3333 42.6667H33.3333C32.6 42.6667 32 42.0667 32 41.3334C32 40.6 32.6 40 33.3333 40H41.3333C42.0666 40 42.6666 40.6 42.6666 41.3334C42.6666 42.0667 42.0666 42.6667 41.3333 42.6667ZM46.6666 34.6667H33.3333C32.6 34.6667 32 34.0667 32 33.3334C32 32.6 32.6 32 33.3333 32H46.6666C47.4 32 48 32.6 48 33.3334C48 34.0667 47.4 34.6667 46.6666 34.6667Z" fill="#ECEEF4"/>
</svg>
