<svg width="710" height="690" viewBox="0 0 710 690" fill="none" xmlns="http://www.w3.org/2000/svg">
<path d="M262.931 87.887C266.458 75.6935 263.873 63.6015 257.157 60.8786C250.441 58.1558 242.138 65.8333 238.612 78.0268C235.085 90.2203 237.67 102.312 244.386 105.035C251.102 107.758 259.405 100.081 262.931 87.887Z" fill="#F4F4F4"/>
<path d="M239.019 77.9964C243.802 75.4436 245.007 66.3575 241.712 57.7021C238.416 49.0467 231.867 44.0996 227.084 46.6525C222.302 49.2053 221.096 58.2914 224.391 66.9468C227.687 75.6022 234.236 80.5493 239.019 77.9964Z" fill="#F4F4F4"/>
<path d="M229.972 98.1116H255.556C257.807 98.1116 259.965 99.1699 261.556 101.054C263.147 102.938 264.041 105.493 264.041 108.157V121.939C264.041 124.603 263.147 127.158 261.556 129.042C259.965 130.926 257.807 131.984 255.556 131.984H229.972V98.1116Z" fill="#F4F4F4"/>
<g opacity="0.05">
<path d="M229.972 98.1116H255.556C257.807 98.1116 259.965 99.1699 261.556 101.054C263.147 102.938 264.041 105.493 264.041 108.157V121.939C264.041 124.603 263.147 127.158 261.556 129.042C259.965 130.926 257.807 131.984 255.556 131.984H229.972V98.1116Z" fill="#404040"/>
</g>
<g opacity="0.05">
<path d="M260.773 74.727H260.741C260.69 74.7208 260.64 74.6996 260.597 74.6655C260.555 74.6313 260.519 74.5852 260.495 74.5312C260.4 74.2603 260.393 73.9569 260.477 73.6808C260.624 72.9486 260.587 72.1817 260.371 71.4739C260.357 71.4279 260.35 71.379 260.352 71.3299C260.353 71.2809 260.363 71.2327 260.38 71.188C260.397 71.1434 260.421 71.1031 260.452 71.0697C260.482 71.0362 260.518 71.0102 260.557 70.993C260.595 70.9758 260.637 70.9679 260.678 70.9696C260.72 70.9713 260.76 70.9827 260.798 71.0031C260.836 71.0234 260.87 71.0524 260.898 71.0883C260.926 71.1242 260.948 71.1664 260.963 71.2123C261.17 71.8878 261.241 72.6113 261.17 73.325C261.537 72.9301 261.946 72.595 262.387 72.3288C262.462 72.2879 262.547 72.2829 262.624 72.3148C262.702 72.3467 262.765 72.4131 262.802 72.4998C262.839 72.5866 262.846 72.6869 262.821 72.7796C262.797 72.8722 262.743 72.9499 262.671 72.9962C262.033 73.3887 261.47 73.9326 261.017 74.594C260.987 74.636 260.95 74.6697 260.908 74.6927C260.866 74.7157 260.82 74.7274 260.773 74.727Z" fill="#404040"/>
<path d="M251.205 65.8301C251.164 65.83 251.123 65.8203 251.085 65.8017C250.867 65.6649 250.7 65.4349 250.619 65.1583C250.352 64.486 249.921 63.9239 249.381 63.5448C249.308 63.4952 249.255 63.4135 249.234 63.3177C249.212 63.2218 249.223 63.1196 249.265 63.0336C249.307 62.9476 249.376 62.8848 249.457 62.859C249.538 62.8332 249.624 62.8465 249.697 62.8961C250.211 63.2553 250.646 63.7549 250.965 64.3534C251.04 63.7647 251.179 63.19 251.378 62.6435C251.413 62.5557 251.476 62.4876 251.553 62.4535C251.629 62.4195 251.714 62.4222 251.79 62.461C251.865 62.4999 251.924 62.5719 251.955 62.6617C251.986 62.7516 251.987 62.8523 251.956 62.9424C251.671 63.7387 251.523 64.5945 251.522 65.4594C251.522 65.5585 251.489 65.6536 251.43 65.7236C251.37 65.7937 251.29 65.8331 251.206 65.8331L251.205 65.8301Z" fill="#404040"/>
<path d="M243.138 77.8816C243.097 77.8814 243.056 77.872 243.018 77.854C242.8 77.7185 242.635 77.4904 242.554 77.2157C242.286 76.5412 241.854 75.9771 241.313 75.5963C241.24 75.5467 241.187 75.465 241.165 75.3692C241.144 75.2733 241.155 75.1711 241.197 75.0851C241.239 74.9991 241.308 74.9363 241.389 74.9105C241.47 74.8847 241.556 74.898 241.628 74.9476C242.144 75.307 242.579 75.8069 242.898 76.4056C242.972 75.8167 243.11 75.2417 243.309 74.695C243.344 74.6072 243.407 74.5391 243.484 74.5051C243.561 74.471 243.646 74.4737 243.721 74.5126C243.796 74.5514 243.855 74.6234 243.887 74.7133C243.918 74.8031 243.918 74.9038 243.888 74.9939C243.603 75.79 243.455 76.6456 243.455 77.5102C243.455 77.6093 243.421 77.7043 243.362 77.7744C243.303 77.8445 243.223 77.8839 243.139 77.8839L243.138 77.8816Z" fill="#404040"/>
<path d="M251.702 76.0595C251.661 76.0592 251.62 76.0499 251.583 76.0318C251.364 75.8955 251.197 75.6657 251.117 75.3891C250.849 74.7165 250.417 74.154 249.878 73.7734C249.842 73.7488 249.81 73.7162 249.785 73.6772C249.76 73.6383 249.741 73.5938 249.73 73.5464C249.72 73.4989 249.717 73.4495 249.722 73.4008C249.728 73.3521 249.741 73.3051 249.762 73.2626C249.783 73.22 249.81 73.1827 249.843 73.1528C249.876 73.1229 249.914 73.101 249.954 73.0882C249.994 73.0755 250.035 73.0722 250.077 73.0786C250.118 73.085 250.157 73.1009 250.193 73.1254C250.708 73.4848 251.142 73.9841 251.461 74.582C251.535 73.9935 251.673 73.419 251.873 72.8728C251.889 72.8264 251.912 72.7842 251.942 72.7486C251.972 72.7131 252.007 72.685 252.046 72.666C252.085 72.6471 252.127 72.6376 252.169 72.6381C252.212 72.6387 252.253 72.6493 252.292 72.6694C252.331 72.6894 252.366 72.7184 252.395 72.7547C252.424 72.791 252.447 72.8339 252.461 72.8807C252.476 72.9276 252.483 72.9775 252.481 73.0275C252.479 73.0775 252.469 73.1266 252.451 73.1718C252.165 73.9679 252.018 74.8238 252.017 75.6888C252.017 75.7879 251.984 75.8829 251.925 75.953C251.866 76.0231 251.786 76.0624 251.702 76.0624V76.0595Z" fill="#404040"/>
<path d="M257.149 86.5939C257.071 86.5946 256.996 86.5614 256.938 86.5008C256.88 86.4401 256.843 86.3562 256.833 86.2651C256.826 85.9733 256.912 85.6889 257.073 85.4677C257.432 84.8483 257.629 84.1179 257.641 83.367C257.641 83.2678 257.674 83.1728 257.733 83.1027C257.792 83.0327 257.873 82.9933 257.956 82.9933C258.04 82.9933 258.12 83.0327 258.179 83.1027C258.239 83.1728 258.272 83.2678 258.272 83.367C258.262 84.089 258.108 84.798 257.823 85.4363C258.286 85.2301 258.771 85.0994 259.265 85.0477C259.306 85.0436 259.348 85.0493 259.388 85.0643C259.427 85.0793 259.464 85.1034 259.496 85.1352C259.527 85.167 259.553 85.2059 259.573 85.2497C259.592 85.2935 259.603 85.3413 259.607 85.3903C259.61 85.4394 259.605 85.4888 259.593 85.5357C259.58 85.5826 259.56 85.6261 259.533 85.6636C259.506 85.7012 259.473 85.7322 259.436 85.7547C259.399 85.7773 259.359 85.791 259.317 85.795C258.607 85.8749 257.919 86.1295 257.297 86.5424C257.252 86.5742 257.201 86.5919 257.149 86.5939Z" fill="#404040"/>
<path d="M243.86 93.0867C243.816 93.0859 243.773 93.0747 243.734 93.0538C243.519 92.9081 243.359 92.6719 243.285 92.3924C243.034 91.7108 242.618 91.1332 242.089 90.7333C242.053 90.7079 242.022 90.6743 241.997 90.6345C241.972 90.5946 241.954 90.5494 241.944 90.5013C241.934 90.4532 241.933 90.4033 241.939 90.3544C241.946 90.3055 241.96 90.2587 241.982 90.2166C242.004 90.1745 242.033 90.1379 242.067 90.1091C242.101 90.0803 242.139 90.0597 242.18 90.0486C242.221 90.0375 242.263 90.0361 242.304 90.0445C242.345 90.0529 242.385 90.0708 242.42 90.0974C242.925 90.4756 243.347 90.991 243.65 91.601C243.74 91.0156 243.893 90.4464 244.106 89.9075C244.146 89.8254 244.21 89.764 244.286 89.7358C244.362 89.7075 244.444 89.7144 244.516 89.7551C244.588 89.7959 244.645 89.8674 244.674 89.9553C244.703 90.0432 244.703 90.1409 244.674 90.2289C244.369 91.0139 244.199 91.8634 244.176 92.7272C244.174 92.7884 244.16 92.848 244.134 92.9009C244.108 92.9538 244.071 92.9984 244.027 93.0306C243.977 93.0671 243.919 93.0865 243.86 93.0867Z" fill="#404040"/>
<path d="M251.767 96.5551C251.756 96.5559 251.745 96.5559 251.735 96.5551C251.683 96.549 251.633 96.5279 251.59 96.4936C251.547 96.4593 251.512 96.4129 251.487 96.3586C251.393 96.0889 251.387 95.7877 251.469 95.5126C251.616 94.7793 251.58 94.0112 251.364 93.302C251.335 93.2092 251.338 93.1064 251.372 93.0162C251.407 92.9259 251.47 92.8556 251.549 92.8207C251.627 92.7858 251.714 92.7892 251.79 92.8302C251.866 92.8711 251.926 92.9462 251.955 93.039C252.163 93.7148 252.234 94.4388 252.163 95.1531C252.529 94.7577 252.938 94.4224 253.38 94.1562C253.454 94.1124 253.541 94.1054 253.62 94.1367C253.699 94.1679 253.764 94.2349 253.801 94.3229C253.839 94.411 253.845 94.5131 253.82 94.6069C253.794 94.7007 253.738 94.7786 253.664 94.8236C253.025 95.2162 252.463 95.7604 252.01 96.4221C251.98 96.464 251.943 96.4977 251.901 96.5206C251.859 96.5436 251.813 96.5554 251.767 96.5551Z" fill="#404040"/>
</g>
<g opacity="0.05">
<path d="M237.592 60.8992H237.559C237.508 60.893 237.458 60.8718 237.415 60.8375C237.372 60.8032 237.337 60.7569 237.313 60.7027C237.218 60.4316 237.211 60.1284 237.295 59.8522C237.442 59.12 237.405 58.3531 237.189 57.6453C237.16 57.5525 237.163 57.4497 237.197 57.3595C237.232 57.2693 237.296 57.1991 237.374 57.1644C237.453 57.1298 237.539 57.1334 237.616 57.1745C237.692 57.2156 237.751 57.2909 237.78 57.3838C237.988 58.0592 238.059 58.7826 237.989 59.4965C238.355 59.1018 238.764 58.767 239.205 58.501C239.279 58.4614 239.363 58.4571 239.44 58.4892C239.517 58.5213 239.58 58.5872 239.617 58.6733C239.653 58.7593 239.66 58.8587 239.637 58.9508C239.613 59.0429 239.56 59.1206 239.489 59.1677C238.851 59.5603 238.288 60.1042 237.835 60.7654C237.805 60.8075 237.768 60.8413 237.726 60.8644C237.684 60.8875 237.638 60.8994 237.592 60.8992Z" fill="#404040"/>
<path d="M230.957 52.5373C230.916 52.5371 230.876 52.5277 230.838 52.5097C230.619 52.3735 230.453 52.144 230.372 51.8677C230.105 51.1945 229.673 50.6317 229.133 50.252C229.06 50.2024 229.007 50.1207 228.985 50.0249C228.963 49.929 228.975 49.8268 229.017 49.7408C229.058 49.6548 229.127 49.592 229.208 49.5662C229.289 49.5404 229.376 49.5537 229.448 49.6033C229.963 49.9631 230.397 50.4626 230.716 51.0606C230.791 50.472 230.929 49.8973 231.128 49.3507C231.163 49.2629 231.226 49.1948 231.302 49.1608C231.379 49.1267 231.464 49.1294 231.539 49.1683C231.615 49.2071 231.674 49.2791 231.705 49.369C231.736 49.4588 231.737 49.5595 231.706 49.6496C231.421 50.4457 231.274 51.3013 231.273 52.1659C231.273 52.227 231.259 52.287 231.235 52.3407C231.21 52.3944 231.175 52.4401 231.132 52.4738C231.08 52.5151 231.02 52.5373 230.957 52.5373Z" fill="#404040"/>
<path d="M229.893 61.4305C229.852 61.4307 229.811 61.421 229.773 61.4021C229.555 61.2652 229.388 61.0352 229.308 60.7586C229.04 60.0867 228.609 59.5247 228.07 59.1452C227.997 59.0956 227.944 59.014 227.923 58.9182C227.901 58.8224 227.912 58.7203 227.954 58.6344C227.996 58.5484 228.065 58.4857 228.146 58.46C228.227 58.4343 228.313 58.4477 228.385 58.4972C228.9 58.8561 229.335 59.3555 229.654 59.9538C229.729 59.3654 229.867 58.7909 230.066 58.2446C230.101 58.1569 230.164 58.0887 230.241 58.0547C230.318 58.0206 230.403 58.0233 230.478 58.0622C230.553 58.101 230.612 58.173 230.643 58.2629C230.675 58.3527 230.675 58.4534 230.644 58.5436C230.359 59.3398 230.212 60.1956 230.21 61.0606C230.209 61.159 230.176 61.2531 230.117 61.3224C230.058 61.3916 229.978 61.4305 229.895 61.4305H229.893Z" fill="#404040"/>
<path d="M235.342 71.9678C235.265 71.9685 235.189 71.9351 235.131 71.8741C235.073 71.8132 235.036 71.7289 235.027 71.6375C235.021 71.3464 235.106 71.063 235.266 70.8416C235.625 70.2219 235.822 69.4913 235.834 68.7401C235.834 68.641 235.867 68.546 235.926 68.4759C235.986 68.4058 236.066 68.3665 236.15 68.3665C236.233 68.3665 236.314 68.4058 236.373 68.4759C236.432 68.546 236.465 68.641 236.465 68.7401C236.455 69.4621 236.301 70.1711 236.016 70.8095C236.479 70.6027 236.965 70.4717 237.458 70.4201C237.541 70.4148 237.622 70.4473 237.686 70.511C237.749 70.5746 237.789 70.6646 237.798 70.7624C237.805 70.8611 237.778 70.9589 237.724 71.0345C237.67 71.11 237.593 71.157 237.51 71.1652C236.8 71.2447 236.112 71.4992 235.49 71.9125C235.445 71.9454 235.395 71.9644 235.342 71.9678Z" fill="#404040"/>
<path d="M228.74 69.6512C228.517 69.6273 228.307 69.5173 228.143 69.3381C227.649 68.892 227.052 68.6349 226.431 68.6012C226.348 68.5981 226.269 68.5558 226.211 68.4836C226.154 68.4114 226.123 68.3153 226.126 68.2163C226.127 68.167 226.135 68.1184 226.152 68.0733C226.169 68.0282 226.193 67.9875 226.224 67.9537C226.254 67.9199 226.29 67.8937 226.329 67.8765C226.368 67.8594 226.409 67.8517 226.451 67.8539C227.045 67.8837 227.625 68.0843 228.139 68.4383C227.979 67.8683 227.881 67.2759 227.85 66.6761C227.845 66.5772 227.874 66.4801 227.929 66.4063C227.985 66.3324 228.063 66.2878 228.147 66.2822C228.189 66.2768 228.231 66.2818 228.271 66.2969C228.311 66.3121 228.348 66.337 228.379 66.3701C228.411 66.4033 228.436 66.4438 228.453 66.4892C228.47 66.5345 228.479 66.5837 228.48 66.6335C228.529 67.4956 228.724 68.3372 229.053 69.1086C229.076 69.1626 229.088 69.2223 229.087 69.2827C229.086 69.3431 229.073 69.4024 229.048 69.4554C229.024 69.5083 228.989 69.5533 228.946 69.5866C228.904 69.6199 228.855 69.6406 228.804 69.6467C228.783 69.6496 228.762 69.6511 228.74 69.6512Z" fill="#404040"/>
</g>
<path d="M143.095 131.224H213.48V107.31L143.095 107.31V131.224Z" fill="#F4F4F4"/>
<path opacity="0.05" d="M143.095 131.224H213.48V107.31L143.095 107.31V131.224Z" fill="#404040"/>
<path d="M152.547 131.224H161.77V107.31H152.547V131.224Z" fill="#FFF8E7"/>
<path d="M166.138 126.027H204.486V111.855H166.138V126.027Z" fill="#FFF8E7"/>
<path d="M126.313 107.333L195.731 107.333V83.4186L126.313 83.4186V107.333Z" fill="#F4F4F4"/>
<path opacity="0.05" d="M177.312 107.333H186.408V83.4186H177.312V107.333Z" fill="#404040"/>
<path d="M135.183 102.135H173.004V87.9638H135.183V102.135Z" fill="#FFF8E7"/>
<path d="M92.4191 131.224L138.146 67.8718L122.791 52.3351L77.0641 115.687L92.4191 131.224Z" fill="#F4F4F4"/>
<path opacity="0.05" d="M98.5594 122.717L104.551 114.415L89.1964 98.8784L83.2045 107.18L98.5594 122.717Z" fill="#404040"/>
<path opacity="0.05" d="M104.052 107.106L128.965 72.5902L119.866 63.3833L94.9528 97.8995L104.052 107.106Z" fill="#404040"/>
<path d="M271.374 130.788H68.1482V140.243H271.374V130.788Z" fill="#F4F4F4"/>
<path d="M587.473 0.747253H321.961C316.293 0.747253 311.698 6.1877 311.698 12.8988V383.03C311.698 389.741 316.293 395.181 321.961 395.181H587.473C593.141 395.181 597.736 389.741 597.736 383.03V12.8988C597.736 6.1877 593.141 0.747253 587.473 0.747253Z" fill="#FFF8E7"/>
<path d="M587.473 395.929H321.961C319.073 395.925 316.304 394.564 314.261 392.146C312.219 389.728 311.07 386.45 311.067 383.03V12.8989C311.07 9.47913 312.219 6.20053 314.261 3.78237C316.304 1.36422 319.073 0.00395581 321.961 0H587.473C590.361 0.00395581 593.13 1.36422 595.173 3.78237C597.215 6.20053 598.364 9.47913 598.367 12.8989V383.03C598.364 386.45 597.215 389.728 595.173 392.146C593.13 394.564 590.361 395.925 587.473 395.929ZM321.961 1.49466C319.407 1.49822 316.959 2.70088 315.154 4.83882C313.348 6.97676 312.332 9.87541 312.329 12.8989V383.03C312.332 386.053 313.348 388.952 315.154 391.09C316.959 393.228 319.407 394.43 321.961 394.434H587.473C590.027 394.43 592.475 393.228 594.28 391.09C596.086 388.952 597.102 386.053 597.105 383.03V12.8989C597.102 9.87541 596.086 6.97676 594.28 4.83882C592.475 2.70088 590.027 1.49822 587.473 1.49466H321.961Z" fill="#404040"/>
<path d="M484.779 60.4231C488.177 60.4231 490.931 57.1619 490.931 53.1389C490.931 49.1159 488.177 45.8547 484.779 45.8547C481.381 45.8547 478.627 49.1159 478.627 53.1389C478.627 57.1619 481.381 60.4231 484.779 60.4231Z" fill="#FCB914"/>
<path d="M484.779 60.4231C488.177 60.4231 490.931 57.1619 490.931 53.1389C490.931 49.1159 488.177 45.8547 484.779 45.8547C481.381 45.8547 478.627 49.1159 478.627 53.1389C478.627 57.1619 481.381 60.4231 484.779 60.4231Z" fill="#FCB914"/>
<path d="M484.779 97.5535C488.177 97.5535 490.931 94.2922 490.931 90.2693C490.931 86.2463 488.177 82.985 484.779 82.985C481.381 82.985 478.627 86.2463 478.627 90.2693C478.627 94.2922 481.381 97.5535 484.779 97.5535Z" fill="#404040"/>
<path opacity="0.5" d="M484.779 134.684C488.177 134.684 490.931 131.422 490.931 127.4C490.931 123.377 488.177 120.115 484.779 120.115C481.381 120.115 478.627 123.377 478.627 127.4C478.627 131.422 481.381 134.684 484.779 134.684Z" fill="#FCB914"/>
<path opacity="0.2" d="M484.779 171.814C488.177 171.814 490.931 168.553 490.931 164.53C490.931 160.507 488.177 157.246 484.779 157.246C481.381 157.246 478.627 160.507 478.627 164.53C478.627 168.553 481.381 171.814 484.779 171.814Z" fill="#FCB914"/>
<path d="M362.659 108.834C362.661 117.713 364.987 126.373 369.319 133.62C373.65 140.868 379.773 146.348 386.843 149.305L376.899 178.014C363.222 171.911 351.787 160.32 344.586 145.26C337.385 130.201 334.875 112.627 337.493 95.6017C340.111 78.5761 347.692 63.1777 358.913 52.0894C370.135 41.0011 384.287 34.9258 398.903 34.9221V65.922C389.291 65.922 380.072 70.4431 373.275 78.4908C366.477 86.5384 362.659 97.4533 362.659 108.834Z" fill="#404040"/>
<path d="M461.329 108.834H435.147C435.147 97.4534 431.328 86.5384 424.531 78.4908C417.734 70.4432 408.515 65.922 398.903 65.922V34.9221C415.459 34.9232 431.337 42.7108 443.044 56.5718C454.751 70.4328 461.328 89.232 461.329 108.834Z" fill="#FCB914"/>
<path opacity="0.5" d="M461.329 108.834C461.328 125.582 456.524 141.833 447.705 154.928C438.886 168.022 426.574 177.184 412.783 180.913L408.347 150.272C416.039 147.811 422.831 142.419 427.675 134.93C432.519 127.441 435.145 118.271 435.147 108.837L461.329 108.834Z" fill="#FCB914"/>
<path opacity="0.2" d="M412.784 180.913C400.84 184.116 388.365 183.109 376.899 178.017L386.844 149.305C393.766 152.181 401.261 152.517 408.348 150.269L412.784 180.913Z" fill="#FCB914"/>
<path d="M570.362 53.6672H499.1C498.981 53.6672 498.868 53.6115 498.784 53.5124C498.701 53.4134 498.654 53.279 498.654 53.1388C498.654 52.9987 498.701 52.8643 498.784 52.7652C498.868 52.6661 498.981 52.6105 499.1 52.6105H570.362C570.48 52.6105 570.593 52.6661 570.677 52.7652C570.761 52.8643 570.808 52.9987 570.808 53.1388C570.808 53.279 570.761 53.4134 570.677 53.5124C570.593 53.6115 570.48 53.6672 570.362 53.6672Z" fill="#FCB914"/>
<path d="M570.362 90.8006H499.1C498.981 90.8006 498.868 90.745 498.784 90.6459C498.701 90.5468 498.654 90.4124 498.654 90.2723C498.654 90.1321 498.701 89.9977 498.784 89.8987C498.868 89.7996 498.981 89.7439 499.1 89.7439H570.362C570.48 89.7439 570.593 89.7996 570.677 89.8987C570.761 89.9977 570.808 90.1321 570.808 90.2723C570.808 90.4124 570.761 90.5468 570.677 90.6459C570.593 90.745 570.48 90.8006 570.362 90.8006Z" fill="#404040"/>
<g opacity="0.5">
<path d="M570.362 127.928H499.1C499.04 127.931 498.98 127.919 498.924 127.894C498.868 127.868 498.817 127.83 498.774 127.781C498.73 127.731 498.696 127.672 498.672 127.607C498.649 127.541 498.637 127.471 498.637 127.4C498.637 127.329 498.649 127.259 498.672 127.193C498.696 127.128 498.73 127.069 498.774 127.02C498.817 126.97 498.868 126.932 498.924 126.906C498.98 126.881 499.04 126.869 499.1 126.872H570.362C570.422 126.869 570.481 126.881 570.538 126.906C570.594 126.932 570.645 126.97 570.688 127.02C570.731 127.069 570.766 127.128 570.789 127.193C570.813 127.259 570.825 127.329 570.825 127.4C570.825 127.471 570.813 127.541 570.789 127.607C570.766 127.672 570.731 127.731 570.688 127.781C570.645 127.83 570.594 127.868 570.538 127.894C570.481 127.919 570.422 127.931 570.362 127.928Z" fill="#FCB914"/>
</g>
<g opacity="0.2">
<path d="M570.362 165.058H499.1C499.04 165.061 498.98 165.049 498.924 165.024C498.868 164.999 498.817 164.96 498.774 164.911C498.73 164.861 498.696 164.802 498.672 164.737C498.649 164.672 498.637 164.601 498.637 164.53C498.637 164.459 498.649 164.389 498.672 164.323C498.696 164.258 498.73 164.199 498.774 164.15C498.817 164.1 498.868 164.062 498.924 164.037C498.98 164.011 499.04 164 499.1 164.002H570.362C570.422 164 570.481 164.011 570.538 164.037C570.594 164.062 570.645 164.1 570.688 164.15C570.731 164.199 570.766 164.258 570.789 164.323C570.813 164.389 570.825 164.459 570.825 164.53C570.825 164.601 570.813 164.672 570.789 164.737C570.766 164.802 570.731 164.861 570.688 164.911C570.645 164.96 570.594 164.999 570.538 165.024C570.481 165.049 570.422 165.061 570.362 165.058Z" fill="#FCB914"/>
</g>
<g opacity="0.1">
<path d="M570.669 366.857H338.765C336.748 366.856 334.814 365.906 333.388 364.218C331.962 362.53 331.16 360.241 331.157 357.853V218.743C331.16 216.356 331.962 214.068 333.387 212.38C334.813 210.692 336.746 209.742 338.762 209.74H570.669C572.685 209.742 574.618 210.692 576.044 212.38C577.469 214.068 578.271 216.356 578.274 218.743V357.853C578.272 360.24 577.47 362.529 576.044 364.217C574.618 365.905 572.685 366.855 570.669 366.857Z" fill="#FCB914"/>
</g>
<path opacity="0.5" d="M362.771 241.296H358.256C357.577 241.296 357.026 241.948 357.026 242.752V344.868C357.026 345.673 357.577 346.325 358.256 346.325H362.771C363.451 346.325 364.001 345.673 364.001 344.868V242.752C364.001 241.948 363.451 241.296 362.771 241.296Z" fill="#FCB914"/>
<path d="M355.797 274.283H351.282C350.602 274.283 350.051 274.936 350.051 275.74V344.869C350.051 345.673 350.602 346.325 351.282 346.325H355.797C356.476 346.325 357.027 345.673 357.027 344.869V275.74C357.027 274.936 356.476 274.283 355.797 274.283Z" fill="#FCB914"/>
<path opacity="0.5" d="M418.595 333.036H414.08C413.401 333.036 412.85 333.688 412.85 334.492V344.869C412.85 345.673 413.401 346.325 414.08 346.325H418.595C419.275 346.325 419.825 345.673 419.825 344.869V334.492C419.825 333.688 419.275 333.036 418.595 333.036Z" fill="#FCB914"/>
<path d="M411.619 268.352H407.104C406.425 268.352 405.874 269.004 405.874 269.809V344.868C405.874 345.673 406.425 346.325 407.104 346.325H411.619C412.299 346.325 412.849 345.673 412.849 344.868V269.809C412.849 269.004 412.299 268.352 411.619 268.352Z" fill="#FCB914"/>
<path opacity="0.5" d="M390.683 283.458H386.169C385.489 283.458 384.938 284.11 384.938 284.914V344.868C384.938 345.673 385.489 346.325 386.169 346.325H390.683C391.363 346.325 391.914 345.673 391.914 344.868V284.914C391.914 284.11 391.363 283.458 390.683 283.458Z" fill="#FCB914"/>
<path d="M383.707 305.18H379.192C378.513 305.18 377.962 305.832 377.962 306.636V344.868C377.962 345.672 378.513 346.325 379.192 346.325H383.707C384.387 346.325 384.938 345.672 384.938 344.868V306.636C384.938 305.832 384.387 305.18 383.707 305.18Z" fill="#FCB914"/>
<path opacity="0.5" d="M502.329 261.609H497.814C497.135 261.609 496.584 262.261 496.584 263.065V344.869C496.584 345.673 497.135 346.325 497.814 346.325H502.329C503.009 346.325 503.559 345.673 503.559 344.869V263.065C503.559 262.261 503.009 261.609 502.329 261.609Z" fill="#FCB914"/>
<path d="M495.354 292.799H490.839C490.16 292.799 489.609 293.451 489.609 294.255V344.869C489.609 345.673 490.16 346.325 490.839 346.325H495.354C496.033 346.325 496.584 345.673 496.584 344.869V294.255C496.584 293.451 496.033 292.799 495.354 292.799Z" fill="#FCB914"/>
<path opacity="0.5" d="M446.506 274.823H441.991C441.312 274.823 440.761 275.475 440.761 276.28V344.868C440.761 345.673 441.312 346.325 441.991 346.325H446.506C447.186 346.325 447.737 345.673 447.737 344.868V276.28C447.737 275.475 447.186 274.823 446.506 274.823Z" fill="#FCB914"/>
<path d="M439.53 282.918H435.015C434.336 282.918 433.785 283.57 433.785 284.375V344.868C433.785 345.672 434.336 346.324 435.015 346.324H439.53C440.21 346.324 440.76 345.672 440.76 344.868V284.375C440.76 283.57 440.21 282.918 439.53 282.918Z" fill="#FCB914"/>
<path opacity="0.5" d="M474.417 241.296H469.903C469.223 241.296 468.672 241.948 468.672 242.752V344.868C468.672 345.673 469.223 346.325 469.903 346.325H474.417C475.097 346.325 475.648 345.673 475.648 344.868V242.752C475.648 241.948 475.097 241.296 474.417 241.296Z" fill="#FCB914"/>
<path d="M467.442 246.355H462.927C462.248 246.355 461.697 247.007 461.697 247.812V344.868C461.697 345.673 462.248 346.325 462.927 346.325H467.442C468.122 346.325 468.672 345.673 468.672 344.868V247.812C468.672 247.007 468.122 246.355 467.442 246.355Z" fill="#FCB914"/>
<path opacity="0.5" d="M530.241 241.296H525.726C525.046 241.296 524.496 241.948 524.496 242.752V344.868C524.496 345.673 525.046 346.325 525.726 346.325H530.241C530.92 346.325 531.471 345.673 531.471 344.868V242.752C531.471 241.948 530.92 241.296 530.241 241.296Z" fill="#FCB914"/>
<path d="M523.265 274.283H518.75C518.071 274.283 517.52 274.936 517.52 275.74V344.869C517.52 345.673 518.071 346.325 518.75 346.325H523.265C523.945 346.325 524.496 345.673 524.496 344.869V275.74C524.496 274.936 523.945 274.283 523.265 274.283Z" fill="#FCB914"/>
<path opacity="0.5" d="M558.152 283.458H553.637C552.958 283.458 552.407 284.11 552.407 284.914V344.868C552.407 345.673 552.958 346.325 553.637 346.325H558.152C558.831 346.325 559.382 345.673 559.382 344.868V284.914C559.382 284.11 558.831 283.458 558.152 283.458Z" fill="#FCB914"/>
<path d="M551.177 305.18H546.662C545.982 305.18 545.431 305.832 545.431 306.636V344.868C545.431 345.672 545.982 346.325 546.662 346.325H551.177C551.856 346.325 552.407 345.672 552.407 344.868V306.636C552.407 305.832 551.856 305.18 551.177 305.18Z" fill="#FCB914"/>
<path d="M179.751 688.986L178.511 688.704L197.886 460.744L199.125 461.027L179.751 688.986Z" fill="#494949"/>
<path d="M251.894 688.986L250.655 688.704L270.03 460.744L271.269 461.027L251.894 688.986Z" fill="#494949"/>
<path d="M411.365 688.986L412.604 688.704L393.229 460.744L391.989 461.027L411.365 688.986Z" fill="#494949"/>
<path d="M339.22 688.986L340.46 688.704L321.085 460.744L319.846 461.027L339.22 688.986Z" fill="#494949"/>
<path d="M313.526 360.421L312.275 360.619L323.593 460.989L324.845 460.791L313.526 360.421Z" fill="#494949"/>
<path d="M183.611 360.42L182.36 360.618L193.678 460.987L194.929 460.79L183.611 360.42Z" fill="#494949"/>
<path d="M324.736 453.536H197.664C194.235 453.536 191.456 456.827 191.456 460.886V460.887C191.456 464.946 194.235 468.237 197.664 468.237H324.736C328.164 468.237 330.944 464.946 330.944 460.887V460.886C330.944 456.827 328.164 453.536 324.736 453.536Z" fill="#404040"/>
<path opacity="0.8" d="M324.736 453.536H197.664C194.235 453.536 191.456 456.827 191.456 460.886V460.887C191.456 464.946 194.235 468.237 197.664 468.237H324.736C328.164 468.237 330.944 464.946 330.944 460.887V460.886C330.944 456.827 328.164 453.536 324.736 453.536Z" fill="#FFF8E7"/>
<path d="M324.736 468.984H197.665C195.862 468.963 194.139 468.101 192.871 466.585C191.602 465.068 190.891 463.02 190.891 460.886C190.891 458.752 191.602 456.704 192.871 455.188C194.139 453.671 195.862 452.809 197.665 452.788H324.736C325.64 452.778 326.536 452.98 327.373 453.382C328.211 453.785 328.973 454.38 329.615 455.133C330.257 455.885 330.766 456.782 331.114 457.769C331.462 458.757 331.641 459.816 331.641 460.886C331.641 461.956 331.462 463.016 331.114 464.003C330.766 464.991 330.257 465.887 329.615 466.64C328.973 467.393 328.211 467.988 327.373 468.39C326.536 468.792 325.64 468.994 324.736 468.984ZM197.665 454.283C196.196 454.302 194.792 455.005 193.759 456.242C192.726 457.478 192.147 459.147 192.147 460.886C192.147 462.625 192.726 464.294 193.759 465.531C194.792 466.767 196.196 467.471 197.665 467.489H324.736C325.473 467.498 326.205 467.335 326.888 467.007C327.572 466.679 328.194 466.194 328.718 465.58C329.242 464.966 329.658 464.235 329.942 463.429C330.226 462.624 330.372 461.759 330.372 460.886C330.372 460.013 330.226 459.149 329.942 458.343C329.658 457.537 329.242 456.806 328.718 456.192C328.194 455.578 327.572 455.093 326.888 454.765C326.205 454.438 325.473 454.274 324.736 454.283H197.665Z" fill="#404040"/>
<path d="M394.48 453.536H267.408C263.98 453.536 261.201 456.827 261.201 460.886V460.887C261.201 464.946 263.98 468.237 267.408 468.237H394.48C397.909 468.237 400.688 464.946 400.688 460.887V460.886C400.688 456.827 397.909 453.536 394.48 453.536Z" fill="#FFF8E7"/>
<path d="M394.479 468.984H267.407C265.604 468.963 263.882 468.101 262.613 466.585C261.345 465.068 260.633 463.02 260.633 460.886C260.633 458.752 261.345 456.704 262.613 455.188C263.882 453.671 265.604 452.809 267.407 452.788H394.479C395.383 452.778 396.28 452.98 397.117 453.382C397.954 453.785 398.716 454.38 399.358 455.133C400 455.885 400.51 456.782 400.858 457.769C401.206 458.757 401.385 459.816 401.385 460.886C401.385 461.956 401.206 463.016 400.858 464.003C400.51 464.991 400 465.887 399.358 466.64C398.716 467.393 397.954 467.988 397.117 468.39C396.28 468.792 395.383 468.994 394.479 468.984ZM267.407 454.283C265.938 454.302 264.535 455.005 263.502 456.242C262.468 457.478 261.889 459.147 261.889 460.886C261.889 462.625 262.468 464.294 263.502 465.531C264.535 466.767 265.938 467.471 267.407 467.489H394.479C395.217 467.498 395.948 467.335 396.632 467.007C397.315 466.679 397.937 466.194 398.461 465.58C398.986 464.966 399.402 464.235 399.686 463.429C399.97 462.624 400.116 461.759 400.116 460.886C400.116 460.013 399.97 459.149 399.686 458.343C399.402 457.537 398.986 456.806 398.461 456.192C397.937 455.578 397.315 455.093 396.632 454.765C395.948 454.438 395.217 454.274 394.479 454.283H267.407Z" fill="#404040"/>
<path d="M306.565 360.516H183.326C181.311 360.517 179.365 359.648 177.851 358.074C176.337 356.5 175.359 354.327 175.099 351.962L166.947 277.842C166.795 276.456 166.894 275.048 167.237 273.712C167.581 272.375 168.162 271.141 168.94 270.091C169.719 269.041 170.678 268.2 171.753 267.624C172.828 267.048 173.994 266.75 175.174 266.75H298.413C300.428 266.75 302.374 267.618 303.888 269.192C305.402 270.766 306.381 272.939 306.641 275.304L314.792 349.425C314.945 350.81 314.846 352.218 314.502 353.555C314.158 354.891 313.578 356.126 312.799 357.175C312.02 358.225 311.062 359.066 309.987 359.642C308.912 360.218 307.745 360.517 306.565 360.516Z" fill="#404040"/>
<path opacity="0.8" d="M306.565 360.516H183.326C181.311 360.517 179.365 359.648 177.851 358.074C176.337 356.5 175.359 354.327 175.099 351.962L166.947 277.842C166.795 276.456 166.894 275.048 167.237 273.712C167.581 272.375 168.162 271.141 168.94 270.091C169.719 269.041 170.678 268.2 171.753 267.624C172.828 267.048 173.994 266.75 175.174 266.75H298.413C300.428 266.75 302.374 267.618 303.888 269.192C305.402 270.766 306.381 272.939 306.641 275.304L314.792 349.425C314.945 350.81 314.846 352.218 314.502 353.555C314.158 354.891 313.578 356.126 312.799 357.175C312.02 358.225 311.062 359.066 309.987 359.642C308.912 360.218 307.745 360.517 306.565 360.516Z" fill="#FFF8E7"/>
<path d="M306.565 361.264H183.327C181.16 361.258 179.068 360.322 177.44 358.629C175.812 356.936 174.758 354.602 174.473 352.058L166.322 277.938C166.158 276.447 166.264 274.932 166.634 273.494C167.004 272.056 167.629 270.727 168.466 269.598C169.304 268.468 170.336 267.563 171.493 266.943C172.65 266.323 173.905 266.003 175.175 266.003H298.413C300.58 266.008 302.672 266.944 304.3 268.638C305.928 270.331 306.982 272.666 307.267 275.209L315.418 349.328C315.583 350.819 315.476 352.334 315.106 353.773C314.736 355.211 314.112 356.539 313.274 357.669C312.436 358.798 311.404 359.703 310.247 360.323C309.09 360.943 307.835 361.264 306.565 361.264ZM175.175 267.497C174.084 267.497 173.007 267.773 172.014 268.305C171.02 268.837 170.134 269.614 169.415 270.584C168.696 271.554 168.159 272.695 167.842 273.93C167.524 275.164 167.433 276.465 167.573 277.745L175.725 351.866C175.969 354.049 176.875 356.054 178.273 357.507C179.67 358.961 181.466 359.764 183.327 359.769H306.565C307.656 359.769 308.733 359.494 309.727 358.962C310.72 358.429 311.606 357.652 312.325 356.682C313.045 355.712 313.581 354.572 313.899 353.337C314.216 352.102 314.308 350.801 314.167 349.521L306.015 275.401C305.771 273.217 304.865 271.213 303.467 269.759C302.07 268.306 300.274 267.502 298.413 267.497H175.175Z" fill="#404040"/>
<path d="M313.533 360.516H190.295C188.28 360.516 186.335 359.648 184.821 358.073C183.308 356.499 182.33 354.327 182.069 351.962L173.918 277.842C173.765 276.456 173.864 275.048 174.208 273.712C174.551 272.375 175.132 271.141 175.911 270.091C176.689 269.041 177.648 268.2 178.723 267.624C179.798 267.048 180.965 266.75 182.145 266.75H305.381C307.397 266.749 309.343 267.617 310.857 269.191C312.371 270.766 313.35 272.939 313.61 275.304L321.762 349.425C321.915 350.81 321.815 352.218 321.472 353.555C321.128 354.892 320.547 356.126 319.768 357.176C318.989 358.226 318.03 359.067 316.955 359.643C315.88 360.219 314.713 360.517 313.533 360.516Z" fill="#FFF8E7"/>
<path d="M313.533 361.264H190.294C188.128 361.258 186.036 360.322 184.408 358.629C182.78 356.936 181.726 354.602 181.441 352.058L173.289 277.938C173.126 276.447 173.232 274.932 173.602 273.494C173.972 272.056 174.597 270.728 175.435 269.598C176.273 268.468 177.305 267.563 178.461 266.943C179.618 266.323 180.873 266.003 182.143 266.003H305.381C307.548 266.008 309.64 266.945 311.268 268.638C312.896 270.331 313.95 272.666 314.235 275.209L322.384 349.328C322.548 350.819 322.441 352.334 322.071 353.772C321.701 355.211 321.076 356.539 320.238 357.668C319.4 358.798 318.369 359.703 317.212 360.323C316.055 360.943 314.8 361.264 313.53 361.264H313.533ZM182.143 267.497C181.053 267.497 179.975 267.773 178.982 268.305C177.989 268.837 177.103 269.614 176.384 270.584C175.664 271.554 175.128 272.695 174.81 273.93C174.492 275.164 174.401 276.465 174.542 277.745L182.693 351.866C182.937 354.049 183.843 356.054 185.24 357.507C186.638 358.961 188.434 359.764 190.294 359.769H313.533C314.623 359.769 315.701 359.494 316.694 358.962C317.688 358.429 318.574 357.652 319.293 356.682C320.012 355.712 320.549 354.572 320.866 353.337C321.184 352.102 321.275 350.801 321.135 349.521L312.983 275.401C312.738 273.217 311.833 271.213 310.435 269.759C309.038 268.306 307.242 267.502 305.381 267.497H182.143Z" fill="#404040"/>
<path d="M404.401 650.033C404.401 650.033 407.785 670.805 424.211 671.962C440.637 673.12 437.072 688.612 437.072 688.612H374.306V651.482L404.401 650.033Z" fill="#FCB914"/>
<path d="M341.77 636.919C341.77 636.919 337.063 657.326 351.37 666.949C365.678 676.573 356.705 688.612 356.705 688.612L300.383 655.804L314.225 622.488L341.77 636.919Z" fill="#FCB914"/>
<path d="M306.885 631.155L367.006 453.747H293.539C276.244 453.747 269.034 436.382 269.034 415.907C269.034 395.432 286.036 377.482 303.33 377.482H406.901C417.449 377.482 429.276 385.12 435.065 395.56C440.854 406.001 439.289 422.179 435.095 433.638L346.412 652.356" fill="#404040"/>
<path opacity="0.8" d="M306.885 631.155L367.006 453.747H293.539C276.244 453.747 269.034 436.382 269.034 415.907C269.034 395.432 286.036 377.482 303.33 377.482H406.901C417.449 377.482 429.276 385.12 435.065 395.56C440.854 406.001 439.289 422.179 435.095 433.638L346.412 652.356" fill="#404040"/>
<path d="M369.398 664.923L335.44 453.747L269.033 453.738C244.599 451.471 233.408 435.616 233.764 415.145C234.115 394.933 242.759 374.971 259.752 374.971H362.427C375 375.276 389.557 389.358 389.557 405.554L415.796 662.47" fill="#404040"/>
<path d="M226.649 375.218C226.649 375.218 222.018 410.975 229.359 430.854C238.523 455.673 272.878 453.739 272.878 453.739L270.942 374.971L226.649 375.218Z" fill="#404040"/>
<path d="M244.773 152.351C245.755 179.205 241.839 188.885 231.901 203.736C223.52 216.261 268.952 207.553 289.024 204.36L273.64 142.626C273.64 142.626 244.431 142.92 244.773 152.351Z" fill="#404040"/>
<path d="M312.134 145.397C317.077 171.628 316.127 179.625 327.139 193.824C336.266 205.596 299.023 206.011 278.936 209.102L280.249 144.757C280.249 144.757 310.399 136.184 312.134 145.397Z" fill="#404040"/>
<path d="M221.545 371.176L221.412 371.185C221.412 371.185 221.508 368.139 221.545 371.176Z" fill="#333333"/>
<path d="M221.713 371.176L221.579 371.185C221.579 371.185 221.676 368.139 221.713 371.176Z" fill="#333333"/>
<path d="M445.272 226.211C445.026 225.634 444.636 225.163 444.154 224.861C443.672 224.559 443.123 224.441 442.582 224.525C442.587 224.486 442.584 224.447 442.573 224.41C442.562 224.373 442.543 224.34 442.519 224.314C442.495 224.287 442.466 224.268 442.434 224.259C442.402 224.249 442.368 224.248 442.336 224.257L444.161 222.709C444.707 222.266 445.099 221.605 445.265 220.847C445.431 220.089 445.36 219.286 445.064 218.585C444.753 217.904 444.24 217.385 443.624 217.127C443.008 216.869 442.333 216.891 441.73 217.188C441.735 217.158 441.717 217.128 441.713 217.097L442.463 216.461C442.975 216.041 443.35 215.425 443.522 214.716C443.695 214.007 443.655 213.249 443.41 212.571C443.249 212.149 443.011 211.775 442.714 211.475C442.416 211.175 442.066 210.958 441.688 210.837C441.311 210.717 440.916 210.698 440.531 210.78C440.146 210.863 439.782 211.045 439.464 211.315L437.735 212.783C437.73 212.771 437.735 212.756 437.728 212.745C437.721 212.734 437.702 212.73 437.693 212.718C438.09 212.189 438.323 211.515 438.355 210.808C438.386 210.101 438.214 209.403 437.866 208.827C437.049 207.272 435.165 207.589 434.046 208.539L423.864 216.865L425.685 213.238C426.051 212.54 426.18 211.703 426.046 210.896C425.911 210.09 425.523 209.374 424.959 208.894C424.662 208.657 424.326 208.496 423.974 208.418C423.621 208.341 423.259 208.349 422.91 208.443C422.56 208.537 422.23 208.714 421.94 208.963C421.65 209.213 421.406 209.53 421.223 209.895L411.287 229.699C410.121 232.023 409.766 234.793 410.298 237.421C410.83 240.049 412.206 242.329 414.135 243.774C416.371 245.451 418.98 246.299 421.626 246.209C424.272 246.119 426.836 245.095 428.987 243.269L444.362 230.221C444.873 229.771 445.241 229.131 445.406 228.403C445.571 227.675 445.524 226.903 445.272 226.211Z" fill="#E98862"/>
<g opacity="0.25">
<path d="M427.66 221.012C427.698 221.073 427.754 221.114 427.817 221.127C427.879 221.139 427.944 221.122 427.996 221.079L437.67 213.147C437.722 213.103 437.758 213.036 437.77 212.961C437.781 212.886 437.767 212.809 437.73 212.746C437.694 212.684 437.638 212.641 437.574 212.627C437.511 212.613 437.446 212.629 437.393 212.672L427.718 220.606C427.692 220.627 427.669 220.654 427.652 220.686C427.635 220.718 427.623 220.753 427.617 220.791C427.611 220.828 427.611 220.866 427.618 220.903C427.624 220.94 427.637 220.976 427.655 221.007L427.66 221.012Z" fill="#404040"/>
</g>
<g opacity="0.25">
<path d="M430.498 226.161C430.535 226.222 430.591 226.263 430.654 226.275C430.717 226.288 430.781 226.271 430.833 226.228L441.63 217.374C441.656 217.353 441.679 217.326 441.696 217.294C441.714 217.262 441.726 217.226 441.731 217.189C441.737 217.152 441.737 217.114 441.73 217.077C441.724 217.039 441.711 217.004 441.693 216.973C441.655 216.912 441.599 216.87 441.536 216.856C441.473 216.843 441.408 216.858 441.354 216.898L430.56 225.752C430.534 225.773 430.511 225.801 430.494 225.832C430.476 225.864 430.464 225.9 430.459 225.937C430.453 225.974 430.453 226.013 430.46 226.05C430.466 226.087 430.479 226.122 430.497 226.153L430.498 226.161Z" fill="#404040"/>
</g>
<g opacity="0.25">
<path d="M433.544 231.757C433.582 231.818 433.638 231.859 433.7 231.872C433.763 231.885 433.827 231.868 433.88 231.825L442.492 224.762C442.52 224.742 442.544 224.715 442.562 224.683C442.581 224.65 442.594 224.614 442.601 224.576C442.608 224.538 442.608 224.498 442.601 224.46C442.595 224.422 442.581 224.386 442.563 224.354C442.544 224.322 442.52 224.294 442.492 224.274C442.464 224.253 442.433 224.239 442.4 224.233C442.368 224.227 442.335 224.229 442.303 224.238C442.271 224.248 442.241 224.265 442.214 224.289L433.601 231.351C433.574 231.372 433.552 231.4 433.534 231.431C433.517 231.463 433.505 231.499 433.499 231.536C433.493 231.573 433.493 231.612 433.5 231.649C433.507 231.686 433.519 231.721 433.537 231.752L433.544 231.757Z" fill="#404040"/>
</g>
<path d="M423.868 216.865L425.689 213.238C426.055 212.54 426.184 211.703 426.05 210.896C425.915 210.09 425.527 209.374 424.963 208.894C424.665 208.658 424.33 208.496 423.978 208.418C423.625 208.341 423.263 208.349 422.913 208.443C422.564 208.537 422.234 208.714 421.944 208.963C421.654 209.213 421.41 209.53 421.227 209.895L411.29 229.699" fill="#E98862"/>
<path d="M405.426 225.191L376.244 284.035L340.637 228.738L311.067 260.302L361.566 337.738L361.897 338.289C363.919 341.567 366.612 344.181 369.722 345.886C372.833 347.591 376.259 348.33 379.678 348.034C383.097 347.738 386.395 346.416 389.263 344.193C392.131 341.97 394.474 338.919 396.071 335.328L437.567 246.354L405.426 225.191Z" fill="#FCB914"/>
<path d="M373.385 291.11C373.321 291.111 373.259 291.091 373.203 291.055C373.148 291.018 373.101 290.965 373.068 290.901C373.035 290.837 373.016 290.764 373.014 290.689C373.011 290.613 373.025 290.539 373.055 290.472L375.915 283.835C375.96 283.731 376.037 283.653 376.131 283.617C376.224 283.581 376.326 283.591 376.414 283.644C376.501 283.697 376.567 283.789 376.598 283.899C376.628 284.01 376.62 284.13 376.575 284.234L373.715 290.871C373.684 290.943 373.636 291.004 373.578 291.046C373.52 291.088 373.453 291.11 373.385 291.11Z" fill="#404040"/>
<path d="M338.583 283.7L337.693 302.285L338.432 302.335L339.323 283.749L338.583 283.7Z" fill="#404040"/>
<path d="M306.246 216.167C306.12 216.147 304.735 243.37 278.023 240.999C259.529 239.359 252.936 216.128 252.513 216.128C254.506 215.626 257.864 214.897 258.75 214.334C261.661 212.482 265.265 210.554 266.203 203.859C266.744 200 265.824 180.258 266.109 176.353L294.495 183.854C294.098 192.101 291.322 211.217 301.052 214.6C302.671 215.163 304.415 215.68 306.246 216.167Z" fill="#E98862"/>
<path opacity="0.52" d="M294.893 206.791C294.448 205.094 294.162 203.345 294.039 201.574C293.727 197.534 293.789 193.466 294.224 189.442C288.455 188.52 283.02 185.701 278.536 181.304C278.008 183.609 275.11 193.68 275.912 195.87C277.43 200.011 284.559 206.791 294.893 206.791Z" fill="#404040"/>
<path d="M291.131 198.222C279.927 199.351 265.499 193.852 262.672 176.167L260.122 160.208C257.295 142.522 262.849 126.429 276.911 123.275C290.976 120.124 303.78 132.105 306.607 149.792L307.736 156.856C308.823 163.643 311.12 196.208 291.131 198.222Z" fill="#E98862"/>
<path d="M303.73 157.627C304.703 157.627 305.493 156.692 305.493 155.54C305.493 154.387 304.703 153.452 303.73 153.452C302.756 153.452 301.967 154.387 301.967 155.54C301.967 156.692 302.756 157.627 303.73 157.627Z" fill="#404040"/>
<path d="M285.667 160.483C286.641 160.483 287.43 159.549 287.43 158.396C287.43 157.243 286.641 156.309 285.667 156.309C284.694 156.309 283.905 157.243 283.905 158.396C283.905 159.549 284.694 160.483 285.667 160.483Z" fill="#404040"/>
<path opacity="0.52" d="M295.58 173.7C295.589 173.699 295.598 173.698 295.607 173.695C296.177 173.562 296.74 173.392 297.294 173.186C298.121 172.872 299.204 172.35 299.061 171.468C298.9 170.46 294.832 160.108 294.367 158.933C294.347 158.881 294.319 158.835 294.284 158.797C294.249 158.758 294.208 158.729 294.164 158.709C294.119 158.69 294.071 158.681 294.024 158.683C293.976 158.685 293.929 158.699 293.886 158.723C293.843 158.746 293.804 158.78 293.772 158.822C293.74 158.863 293.715 158.912 293.699 158.965C293.683 159.018 293.676 159.075 293.678 159.131C293.68 159.187 293.692 159.243 293.713 159.294C295.448 163.703 298.243 170.952 298.351 171.625C298.258 171.939 296.885 172.536 295.471 172.854C295.378 172.873 295.296 172.935 295.241 173.025C295.186 173.116 295.163 173.228 295.177 173.338C295.191 173.448 295.241 173.547 295.316 173.615C295.39 173.682 295.484 173.712 295.578 173.699L295.58 173.7Z" fill="#404040"/>
<path opacity="0.52" d="M293.497 181.336C295.791 180.983 297.983 179.997 299.896 178.457C299.936 178.426 299.97 178.387 299.997 178.341C300.024 178.294 300.043 178.242 300.053 178.187C300.063 178.132 300.063 178.076 300.054 178.02C300.046 177.965 300.028 177.913 300.002 177.865C299.976 177.818 299.943 177.778 299.904 177.746C299.865 177.714 299.821 177.692 299.774 177.68C299.728 177.669 299.68 177.668 299.633 177.678C299.587 177.689 299.542 177.71 299.503 177.74C295.362 180.934 291.248 181.451 287.605 179.235C287.532 179.187 287.456 179.144 287.378 179.107C287.288 179.069 287.189 179.074 287.102 179.122C287.015 179.17 286.948 179.257 286.916 179.364C286.883 179.471 286.888 179.588 286.928 179.691C286.969 179.793 287.042 179.873 287.132 179.911C287.161 179.926 287.209 179.955 287.274 179.996C289.19 181.165 291.357 181.632 293.497 181.336Z" fill="#404040"/>
<path d="M264.408 181.359C260.133 182.316 255.803 177.679 254.994 172.615C254.185 167.551 257.203 163.987 261.478 163.03L264.223 165.927L268.083 180.533L264.408 181.359Z" fill="#E98862"/>
<path d="M296.947 150.473C298.194 149.52 299.634 148.981 301.117 148.914C301.847 148.875 302.578 148.967 303.285 149.185C303.986 149.398 304.66 149.714 305.294 150.127C305.375 150.185 305.434 150.276 305.461 150.383C305.488 150.49 305.48 150.605 305.439 150.706C305.398 150.806 305.327 150.885 305.239 150.927C305.152 150.969 305.055 150.97 304.966 150.931L304.939 150.917C304.353 150.578 303.734 150.327 303.095 150.17C302.464 150.01 301.816 149.964 301.173 150.034C299.898 150.16 298.674 150.684 297.625 151.552L297.591 151.581C297.531 151.64 297.462 151.685 297.387 151.711C297.312 151.737 297.233 151.745 297.156 151.734C297.078 151.722 297.004 151.692 296.936 151.645C296.869 151.598 296.811 151.536 296.765 151.461C296.719 151.386 296.687 151.301 296.67 151.21C296.653 151.12 296.653 151.027 296.668 150.936C296.683 150.845 296.714 150.759 296.758 150.683C296.803 150.607 296.86 150.543 296.926 150.494L296.947 150.473Z" fill="#404040"/>
<path d="M285.7 153.607C284.457 153.247 283.156 153.282 281.928 153.709C281.308 153.92 280.718 154.24 280.178 154.659C279.631 155.079 279.13 155.579 278.688 156.148L278.668 156.172C278.598 156.246 278.506 156.287 278.412 156.286C278.317 156.285 278.227 156.242 278.158 156.165C278.088 156.089 278.046 155.985 278.038 155.873C278.031 155.762 278.059 155.651 278.117 155.563C278.581 154.907 279.114 154.323 279.702 153.825C280.295 153.319 280.948 152.921 281.64 152.644C283.044 152.072 284.551 151.959 286.005 152.315C286.082 152.328 286.155 152.36 286.222 152.408C286.288 152.457 286.345 152.521 286.389 152.597C286.433 152.672 286.464 152.758 286.48 152.848C286.495 152.938 286.494 153.031 286.478 153.121C286.462 153.211 286.43 153.297 286.385 153.372C286.339 153.446 286.282 153.51 286.215 153.557C286.148 153.604 286.074 153.635 285.997 153.647C285.92 153.659 285.841 153.652 285.767 153.627L285.743 153.62L285.7 153.607Z" fill="#404040"/>
<path opacity="0.52" d="M293.985 185.351C294.4 185.295 294.811 185.198 295.213 185.059C295.305 185.028 295.383 184.955 295.429 184.855C295.476 184.756 295.487 184.639 295.46 184.53C295.434 184.421 295.372 184.329 295.288 184.274C295.204 184.219 295.106 184.206 295.014 184.237C292.596 185.059 291.221 183.97 291.163 183.923C291.085 183.857 290.988 183.832 290.893 183.851C290.799 183.871 290.715 183.934 290.66 184.027C290.605 184.12 290.583 184.235 290.6 184.346C290.616 184.458 290.669 184.558 290.748 184.623C291.723 185.301 292.867 185.559 293.985 185.351Z" fill="#404040"/>
<path opacity="0.1" d="M284.244 175.003C286.088 174.768 287.465 173.279 287.32 171.678C287.174 170.076 285.561 168.968 283.717 169.203C281.873 169.438 280.495 170.927 280.641 172.528C280.787 174.13 282.4 175.238 284.244 175.003Z" fill="#404040"/>
<path opacity="0.1" d="M303.764 168.875C303.913 170.474 305.526 171.581 307.37 171.349C307.689 171.308 308.003 171.228 308.308 171.111C308.412 169.207 308.434 167.374 308.405 165.679C307.895 165.521 307.364 165.477 306.841 165.549C304.998 165.781 303.622 167.27 303.764 168.875Z" fill="#404040"/>
<path d="M339.435 276.103C338.593 287.807 334.5 360.552 333.691 374.971L226.65 375.24C226.018 362.236 218.743 305.385 216.355 279.96C214.075 255.698 209.601 243.551 212.883 236.378C218.241 224.656 232.881 217.882 242.865 216.281C248.957 215.306 258.128 214.604 258.128 214.604C258.128 214.604 258.905 233.197 277.415 234.232C302.612 235.639 300.93 214.604 301.055 214.604C305.137 214.604 328.457 217.663 334.161 221.667C349.705 232.569 341.221 251.302 339.435 276.103Z" fill="#FCB914"/>
<path d="M408.915 284.279L398.597 343.657C398.387 344.862 397.835 345.947 397.032 346.728C396.229 347.51 395.224 347.943 394.184 347.953L323.136 348.669C322.459 348.676 321.788 348.503 321.174 348.164C320.56 347.824 320.018 347.326 319.587 346.706C319.157 346.086 318.849 345.36 318.686 344.581C318.523 343.802 318.509 342.99 318.646 342.204L328.964 282.826C329.174 281.621 329.726 280.536 330.529 279.755C331.333 278.973 332.338 278.541 333.377 278.531L404.425 277.814C405.103 277.807 405.773 277.98 406.387 278.32C407.002 278.659 407.544 279.157 407.974 279.777C408.404 280.397 408.712 281.123 408.875 281.902C409.038 282.681 409.052 283.493 408.915 284.279Z" fill="#404040"/>
<path d="M342.665 326.456C342.702 327.238 342.5 328.009 342.095 328.628C341.691 329.248 341.111 329.673 340.462 329.827L338.275 330.398C338.314 330.413 338.35 330.439 338.378 330.475C338.406 330.51 338.427 330.553 338.438 330.599C338.444 330.654 338.433 330.71 338.409 330.757C338.934 330.932 339.401 331.297 339.744 331.8C340.087 332.303 340.289 332.921 340.322 333.566C340.325 334.319 340.113 335.05 339.722 335.643C339.33 336.236 338.781 336.655 338.164 336.832L319.695 341.69C318.75 341.939 317.786 342.065 316.818 342.063C314.662 342.063 312.539 341.442 310.631 340.254C308.724 339.065 307.089 337.346 305.867 335.242C304.572 333.018 304.061 330.282 304.443 327.618C304.826 324.954 306.071 322.571 307.914 320.977L323.625 307.38C323.971 307.08 324.373 306.884 324.796 306.809L323.35 315.122L323.736 315.017L323.817 315L335.865 312.094C337.207 311.743 339.046 312.322 339.283 314.13C339.411 314.823 339.337 315.545 339.073 316.181C338.809 316.817 338.372 317.329 337.832 317.633C337.839 317.641 337.854 317.65 337.854 317.668C337.854 317.686 337.846 317.694 337.846 317.712L339.929 317.168C340.31 317.067 340.706 317.069 341.086 317.171C341.467 317.274 341.824 317.475 342.131 317.761C342.438 318.046 342.688 318.409 342.862 318.822C343.036 319.236 343.131 319.69 343.139 320.152C343.139 320.89 342.924 321.605 342.529 322.177C342.135 322.748 341.585 323.14 340.974 323.286L340.077 323.523C340.07 323.558 340.077 323.593 340.063 323.62C340.717 323.626 341.345 323.92 341.826 324.444C342.307 324.968 342.606 325.685 342.665 326.456Z" fill="#E98862"/>
<g opacity="0.25">
<path d="M325.851 320.594C325.865 320.667 325.903 320.731 325.957 320.772C326.01 320.813 326.075 320.827 326.138 320.812L337.666 318.013C337.728 317.996 337.783 317.952 337.818 317.888C337.853 317.824 337.865 317.747 337.852 317.673C337.839 317.598 337.802 317.533 337.749 317.491C337.695 317.449 337.63 317.433 337.567 317.448L326.04 320.247C325.977 320.263 325.921 320.307 325.886 320.371C325.85 320.435 325.838 320.512 325.85 320.587L325.851 320.594Z" fill="#404040"/>
</g>
<g opacity="0.25">
<path d="M326.754 326.648C326.768 326.721 326.806 326.785 326.86 326.826C326.913 326.866 326.978 326.881 327.04 326.866L339.906 323.742C339.937 323.734 339.967 323.719 339.993 323.698C340.019 323.677 340.042 323.65 340.06 323.618C340.077 323.587 340.09 323.551 340.096 323.514C340.102 323.477 340.101 323.439 340.095 323.402C340.08 323.328 340.042 323.264 339.989 323.223C339.935 323.181 339.871 323.165 339.808 323.178L326.942 326.301C326.879 326.317 326.823 326.362 326.788 326.425C326.752 326.489 326.74 326.567 326.753 326.642L326.754 326.648Z" fill="#404040"/>
</g>
<g opacity="0.25">
<path d="M327.699 333.211C327.713 333.284 327.751 333.348 327.805 333.389C327.858 333.43 327.923 333.444 327.985 333.429L338.248 330.938C338.309 330.921 338.363 330.876 338.398 330.812C338.432 330.749 338.444 330.672 338.431 330.599C338.418 330.525 338.382 330.46 338.329 330.418C338.277 330.376 338.212 330.36 338.15 330.373L327.887 332.864C327.856 332.872 327.826 332.887 327.8 332.908C327.773 332.929 327.751 332.956 327.733 332.988C327.715 333.019 327.703 333.055 327.697 333.092C327.691 333.129 327.691 333.167 327.698 333.204L327.699 333.211Z" fill="#404040"/>
</g>
<path d="M318.551 350.338L218.351 371.778C215.224 372.181 212.061 371.72 209.11 370.433C206.159 369.145 203.499 367.065 201.341 364.357C199.183 361.648 197.584 358.384 196.67 354.821C195.756 351.257 195.552 347.492 196.074 343.819L210.102 245.097C210.538 241.968 211.492 238.973 212.908 236.281C214.324 233.59 216.175 231.255 218.354 229.412C220.534 227.569 222.999 226.253 225.609 225.54C228.219 224.827 230.921 224.731 233.563 225.257C236.204 225.783 238.731 226.921 241 228.606C243.269 230.291 245.235 232.489 246.785 235.075C248.336 237.661 249.44 240.584 250.034 243.676C250.628 246.768 250.702 249.968 250.249 253.094L240.684 321.053L314.146 310.129L318.551 350.338Z" fill="#FCB914"/>
<path d="M218.351 372.218C218.259 372.216 218.17 372.174 218.103 372.1C218.035 372.026 217.994 371.924 217.986 371.816C217.978 371.707 218.004 371.599 218.06 371.512C218.116 371.425 218.197 371.366 218.288 371.346L318.142 349.981L313.83 310.622L240.738 321.491C240.68 321.5 240.621 321.493 240.567 321.471C240.512 321.448 240.462 321.41 240.422 321.359C240.382 321.311 240.353 321.251 240.336 321.186C240.319 321.122 240.315 321.053 240.324 320.986L246.404 277.553C246.411 277.495 246.428 277.44 246.454 277.391C246.48 277.342 246.513 277.299 246.553 277.265C246.593 277.232 246.638 277.208 246.686 277.195C246.733 277.183 246.783 277.181 246.831 277.192C246.928 277.211 247.014 277.275 247.071 277.369C247.129 277.464 247.152 277.582 247.136 277.697L241.139 320.549L314.105 309.7C314.203 309.686 314.3 309.718 314.378 309.789C314.456 309.86 314.507 309.964 314.52 310.079L318.925 350.285C318.937 350.397 318.913 350.51 318.856 350.601C318.8 350.692 318.717 350.754 318.623 350.774L218.418 372.21C218.395 372.215 218.373 372.217 218.351 372.218Z" fill="#404040"/>
<path d="M240.627 320.621L234.182 321.843L234.3 322.711L240.745 321.489L240.627 320.621Z" fill="#404040"/>
<path d="M246.187 164.418L259.55 163.366C282.77 157.627 293.053 134.475 293.053 134.475C293.053 134.475 305.496 153.452 313.278 151.708C313.278 151.708 310.914 103.959 269.859 112.262C256.53 114.956 245.585 129.728 244.816 151.014C244.252 166.664 246.187 164.418 246.187 164.418Z" fill="#404040"/>
<path d="M60.1161 375.952L647.76 375.952C650.616 375.952 652.932 373.21 652.932 369.828C652.932 366.447 650.616 363.705 647.76 363.705L60.1161 363.705C57.2596 363.705 54.9441 366.447 54.9441 369.828C54.9441 373.21 57.2596 375.952 60.1161 375.952Z" fill="#404040"/>
<path opacity="0.8" d="M60.1161 375.952L647.76 375.952C650.616 375.952 652.932 373.21 652.932 369.828C652.932 366.447 650.616 363.705 647.76 363.705L60.1161 363.705C57.2596 363.705 54.9441 366.447 54.9441 369.828C54.9441 373.21 57.2596 375.952 60.1161 375.952Z" fill="#FFF8E7"/>
<path d="M54.3158 369.829C54.3168 368.007 54.9284 366.26 56.0164 364.972C57.1044 363.684 58.5797 362.959 60.1184 362.958H647.76C649.299 362.958 650.775 363.682 651.864 364.97C652.952 366.259 653.563 368.006 653.563 369.829C653.563 371.651 652.952 373.399 651.864 374.687C650.775 375.976 649.299 376.7 647.76 376.7H60.1184C58.5797 376.698 57.1044 375.974 56.0164 374.686C54.9284 373.397 54.3168 371.651 54.3158 369.829ZM60.1184 364.452C58.9141 364.452 57.7591 365.019 56.9075 366.027C56.056 367.035 55.5776 368.403 55.5776 369.829C55.5776 371.255 56.056 372.622 56.9075 373.63C57.7591 374.639 58.9141 375.205 60.1184 375.205H647.76C648.964 375.205 650.119 374.639 650.971 373.63C651.822 372.622 652.301 371.255 652.301 369.829C652.301 368.403 651.822 367.035 650.971 366.027C650.119 365.019 648.964 364.452 647.76 364.452H60.1184Z" fill="#404040"/>
<path d="M60.1159 375.952L533.538 375.952C536.394 375.952 538.71 373.21 538.71 369.828C538.71 366.447 536.394 363.705 533.538 363.705L60.1159 363.705C57.2595 363.705 54.9439 366.447 54.9439 369.828C54.9439 373.21 57.2595 375.952 60.1159 375.952Z" fill="#FFF8E7"/>
<path d="M54.3158 369.829C54.3168 368.007 54.9284 366.26 56.0164 364.972C57.1044 363.684 58.5797 362.959 60.1184 362.958H533.539C535.078 362.958 536.554 363.682 537.642 364.97C538.73 366.259 539.342 368.006 539.342 369.829C539.342 371.651 538.73 373.399 537.642 374.687C536.554 375.976 535.078 376.7 533.539 376.7H60.1152C58.5771 376.697 57.1026 375.972 56.0153 374.684C54.928 373.396 54.3168 371.65 54.3158 369.829ZM60.1184 364.452C58.9141 364.452 57.7591 365.019 56.9075 366.027C56.056 367.035 55.5776 368.403 55.5776 369.829C55.5776 371.255 56.056 372.622 56.9075 373.63C57.7591 374.639 58.9141 375.205 60.1184 375.205H533.539C534.743 375.205 535.898 374.639 536.749 373.63C537.601 372.622 538.079 371.255 538.079 369.829C538.079 368.403 537.601 367.035 536.749 366.027C535.898 365.019 534.743 364.452 533.539 364.452H60.1184Z" fill="#404040"/>
<path d="M22.3415 379.146C18.7418 379.145 15.1955 378.115 12.0044 376.143C8.81326 374.171 6.07185 371.315 4.01347 367.818C1.95509 364.322 0.640662 360.288 0.18207 356.061C-0.276523 351.833 0.134291 347.537 1.37955 343.539C2.64194 339.478 35.0601 240.402 40.7029 223.182L79.7107 250.058C76.5383 259.741 65.0424 296.44 55.8068 326.004L71.1498 324.03L75.9797 372.397L24.7565 378.991C23.9544 379.094 23.1483 379.146 22.3415 379.146Z" fill="#3E5693"/>
<path d="M149.942 202.58C149.805 202.558 146.051 219.286 116.753 216.682C96.4699 214.883 91.5245 198.538 91.0593 198.538C93.2464 197.987 96.7975 197.417 97.7689 196.802C100.963 194.771 103.289 192.297 104.46 186.989C105.375 182.838 105.842 166.857 105.842 158.84L137.053 167.143C136.618 176.186 133.573 197.155 144.244 200.866C146.018 201.48 147.931 202.044 149.942 202.58Z" fill="#E98862"/>
<path d="M135.971 184.925C123.667 186.074 107.861 179.924 104.859 160.487L102.15 142.949C99.1484 123.514 105.337 105.891 120.793 102.543C136.249 99.1969 150.235 112.452 153.236 131.887L154.435 139.651C155.589 147.11 157.924 182.872 135.971 184.925Z" fill="#E98862"/>
<path d="M77.7334 201.228C66.6767 202.2 55.4024 203.62 47.2669 212.535C37.4689 223.275 35.6933 236.481 41.944 272.823C47.3224 304.094 45.189 317.758 48.7868 375.461C48.8928 377.161 49.1201 380.677 49.1201 380.677L174.453 380.434C174.453 380.434 178.479 303.887 184.599 268.578C189.252 241.733 201.474 209.145 149.942 202.577C149.804 202.56 108.473 198.527 77.7334 201.228Z" fill="#3E5693"/>
<path d="M284.404 236.261L269.529 248.772L270.829 246.243C271.235 245.418 271.361 244.44 271.182 243.508C271.002 242.576 270.531 241.76 269.862 241.224C269.509 240.962 269.115 240.787 268.703 240.711C268.291 240.635 267.87 240.66 267.467 240.783C267.063 240.905 266.685 241.124 266.355 241.426C266.025 241.728 265.751 242.106 265.548 242.537L255.295 264.235C254 266.974 253.661 270.204 254.349 273.235C255.037 276.266 256.699 278.859 258.979 280.46C261.626 282.319 264.682 283.2 267.755 282.989C270.827 282.778 273.777 281.486 276.225 279.278L287.3 269.251C287.884 268.743 288.302 268.012 288.483 267.181C288.664 266.35 288.597 265.471 288.294 264.692C288.007 263.996 287.54 263.427 286.961 263.067C286.382 262.707 285.721 262.576 285.074 262.692C285.074 262.633 285.059 262.575 285.033 262.524C285.006 262.479 284.97 262.442 284.929 262.416C284.887 262.391 284.841 262.379 284.794 262.38L286.844 260.53C287.465 259.995 287.902 259.211 288.073 258.324C288.244 257.437 288.139 256.506 287.776 255.704C287.396 254.924 286.784 254.339 286.06 254.062C285.335 253.786 284.55 253.839 283.857 254.209C283.861 254.171 283.859 254.132 283.851 254.094L284.691 253.336C285.247 252.811 285.646 252.088 285.828 251.274C286.01 250.46 285.965 249.598 285.701 248.816C285.358 247.956 284.744 247.29 283.991 246.96C283.237 246.63 282.405 246.662 281.672 247.05L281.641 246.99L287.89 241.733C288.211 241.463 288.482 241.119 288.686 240.721C288.891 240.324 289.024 239.881 289.08 239.42C289.135 238.959 289.11 238.49 289.007 238.041C288.904 237.592 288.724 237.172 288.48 236.808C287.985 236.122 287.29 235.684 286.533 235.582C285.776 235.48 285.015 235.723 284.404 236.261Z" fill="#E98862"/>
<path opacity="0.2" d="M281.705 247.461C281.686 247.493 281.662 247.521 281.635 247.544L275.512 252.567C275.481 252.594 275.446 252.614 275.408 252.625C275.37 252.636 275.331 252.637 275.293 252.63C275.255 252.623 275.218 252.606 275.186 252.582C275.153 252.557 275.125 252.525 275.103 252.487C275.081 252.45 275.065 252.407 275.057 252.362C275.049 252.317 275.049 252.271 275.057 252.226C275.064 252.181 275.08 252.138 275.101 252.101C275.123 252.063 275.151 252.03 275.184 252.006L281.306 246.984C281.362 246.938 281.43 246.916 281.497 246.924C281.565 246.931 281.628 246.966 281.676 247.023C281.723 247.081 281.753 247.156 281.758 247.236C281.763 247.316 281.745 247.396 281.705 247.461Z" fill="#404040"/>
<path opacity="0.2" d="M283.818 254.36C283.799 254.392 283.776 254.42 283.749 254.442L278.964 258.434C278.933 258.462 278.898 258.482 278.861 258.493C278.823 258.505 278.784 258.507 278.746 258.5C278.707 258.493 278.67 258.477 278.637 258.453C278.605 258.429 278.576 258.397 278.554 258.36C278.531 258.322 278.515 258.28 278.507 258.235C278.499 258.19 278.499 258.144 278.506 258.098C278.513 258.053 278.528 258.01 278.55 257.972C278.571 257.934 278.599 257.902 278.632 257.877L283.417 253.884C283.472 253.838 283.54 253.817 283.607 253.824C283.675 253.831 283.738 253.866 283.786 253.923C283.834 253.98 283.864 254.055 283.869 254.135C283.875 254.215 283.857 254.295 283.818 254.36Z" fill="#404040"/>
<path opacity="0.2" d="M285.028 262.911C285.007 262.944 284.982 262.974 284.953 262.997L282.656 264.819C282.624 264.844 282.589 264.862 282.552 264.87C282.515 264.879 282.477 264.879 282.44 264.871C282.402 264.862 282.367 264.845 282.336 264.82C282.304 264.795 282.277 264.763 282.256 264.726C282.235 264.689 282.22 264.647 282.213 264.603C282.206 264.559 282.206 264.514 282.213 264.47C282.22 264.426 282.235 264.384 282.256 264.347C282.277 264.31 282.304 264.278 282.335 264.253L284.632 262.43C284.688 262.386 284.755 262.367 284.822 262.375C284.889 262.383 284.951 262.419 284.998 262.476C285.045 262.533 285.074 262.608 285.079 262.687C285.084 262.766 285.066 262.845 285.028 262.911Z" fill="#404040"/>
<path d="M195.131 373.441C186.522 372.149 179.311 366.6 176.641 356.824L145.597 243.147L188.118 226.868L206.34 303.117L250.664 251.725L280.1 287.35L216.817 362.767C212.696 370.526 201.907 374.458 195.131 373.441Z" fill="#3E5693"/>
<path d="M153.681 203.573C153.504 222.144 141.758 230.439 117.621 232.375C93.4838 234.31 66.8538 223.683 70.6914 198.304C74.5796 172.618 80.2856 164.779 81.6489 138.831C81.7058 137.636 81.7626 136.395 81.8067 135.117C82.8103 105.68 100.799 93.9767 109.693 92.5344C120.152 90.8305 128.029 92.6315 131.109 94.0514C135.73 95.7345 139.972 98.6269 143.521 102.514C147.07 106.402 149.835 111.185 151.61 116.509C151.773 117.012 151.81 117.56 151.719 118.088C151.627 118.616 151.41 119.102 151.093 119.489C150.776 119.876 150.373 120.148 149.93 120.272C149.487 120.397 149.023 120.37 148.593 120.193C147.67 119.795 146.777 119.305 145.923 118.728C146.599 121.8 147.382 128.914 144.402 135.117C144.366 142.042 144.879 148.955 145.936 155.766C146.334 158.606 146.813 161.655 147.375 165.003C151.617 190.227 153.876 182.761 153.681 203.573Z" fill="#404040"/>
<path d="M147.386 156.066C142.689 157.083 137.963 151.956 137.104 146.397C136.245 140.837 138.386 135.116 144.399 135.116L147.386 156.066Z" fill="#E98862"/>
<path d="M210.136 319.13C210.07 319.13 210.006 319.104 209.953 319.056C209.901 319.009 209.864 318.942 209.847 318.866L206.332 302.834C206.32 302.788 206.317 302.74 206.321 302.693C206.325 302.646 206.338 302.6 206.357 302.558C206.377 302.517 206.404 302.48 206.436 302.451C206.467 302.422 206.504 302.401 206.543 302.389C206.582 302.377 206.622 302.375 206.662 302.382C206.702 302.389 206.74 302.405 206.774 302.43C206.809 302.455 206.838 302.488 206.862 302.527C206.885 302.566 206.901 302.61 206.91 302.657L210.425 318.689C210.444 318.78 210.433 318.876 210.393 318.956C210.353 319.037 210.287 319.095 210.211 319.119C210.186 319.126 210.161 319.13 210.136 319.13Z" fill="#404040"/>
<path d="M132.521 639.362L129.908 688.036L186.051 688.353C186.051 688.353 188.912 676.135 175.755 670.92C168.439 668.02 163.664 658.273 165.156 646.246L132.521 639.362Z" fill="#383838"/>
<path opacity="0.17" d="M132.521 639.362L129.908 688.036L186.051 688.353C186.051 688.353 188.912 676.135 175.755 670.92C168.439 668.02 163.664 658.273 165.156 646.246L132.521 639.362Z" fill="#404040"/>
<path d="M208.264 639.362L205.651 688.036L261.794 688.353C261.794 688.353 264.655 676.135 251.498 670.92C244.182 668.02 239.407 658.273 240.899 646.246L208.264 639.362Z" fill="#383838"/>
<path d="M186.189 412.579L176.336 661.992L125.869 659.983L130.182 410.351L186.189 412.579Z" fill="#404040"/>
<path opacity="0.52" d="M186.189 412.579L176.336 661.992L125.869 659.983L130.182 410.351L186.189 412.579Z" fill="#FFF8E7"/>
<path d="M198.455 660.559L248.916 658.326L244.522 419.133C244.548 418.557 244.566 417.978 244.57 417.395C244.578 416.087 244.527 414.779 244.417 413.477L244.412 413.167H244.386C243.567 404.248 239.999 395.999 234.364 390.001C228.729 384.003 221.424 380.676 213.846 380.658L93.4844 380.384V380.284H49.1297C49.1297 380.284 44.5574 416.289 51.8981 436.169C61.0624 460.987 95.5686 454.285 95.5686 454.285L95.5484 453.555H188.649L198.455 660.559Z" fill="#404040"/>
<path opacity="0.64" d="M198.455 660.559L248.916 658.326L244.522 419.133C244.548 418.557 244.566 417.978 244.57 417.395C244.578 416.087 244.527 414.779 244.417 413.477L244.412 413.167H244.386C243.567 404.248 239.999 395.999 234.364 390.001C228.729 384.003 221.424 380.676 213.846 380.658L93.4844 380.384V380.284H49.1297C49.1297 380.284 44.5574 416.289 51.8981 436.169C61.0624 460.987 95.5686 454.285 95.5686 454.285L95.5484 453.555H188.649L198.455 660.559Z" fill="#FFF8E7"/>
<path d="M262.59 689.75L263.83 689.467L238.143 461.508L236.904 461.791L262.59 689.75Z" fill="#494949"/>
<path d="M184.135 689.75L185.374 689.467L165.999 461.508L164.76 461.791L184.135 689.75Z" fill="#494949"/>
<path d="M158.448 361.28H35.2092C33.1942 361.28 31.2481 360.412 29.7341 358.838C28.2201 357.263 27.2417 355.09 26.9816 352.725L18.8297 278.604C18.6773 277.219 18.7764 275.811 19.1201 274.474C19.4639 273.138 20.0445 271.903 20.8232 270.854C21.6019 269.804 22.5607 268.963 23.6358 268.387C24.7108 267.811 25.8773 267.513 27.0573 267.513H150.296C152.311 267.512 154.258 268.38 155.773 269.954C157.287 271.528 158.266 273.702 158.526 276.068L166.678 350.188C166.83 351.574 166.731 352.982 166.387 354.319C166.043 355.655 165.462 356.89 164.683 357.94C163.905 358.99 162.945 359.831 161.87 360.407C160.795 360.983 159.628 361.28 158.448 361.28Z" fill="#FFF8E7"/>
<path d="M158.448 362.028H35.2091C33.0419 362.022 30.95 361.086 29.3216 359.393C27.6932 357.7 26.6388 355.365 26.3541 352.821L18.2041 278.702C18.0402 277.211 18.1467 275.696 18.5166 274.258C18.8865 272.819 19.5113 271.491 20.3491 270.361C21.187 269.232 22.2187 268.327 23.3755 267.706C24.5323 267.086 25.7874 266.766 27.0572 266.765H150.296C152.463 266.771 154.554 267.707 156.183 269.4C157.811 271.093 158.865 273.428 159.149 275.972L167.301 350.092C167.465 351.583 167.359 353.098 166.989 354.536C166.619 355.974 165.994 357.303 165.156 358.432C164.318 359.562 163.286 360.467 162.13 361.087C160.973 361.707 159.718 362.028 158.448 362.028ZM27.0572 268.26C25.9669 268.26 24.8892 268.536 23.896 269.068C22.9028 269.601 22.0169 270.378 21.2975 271.348C20.5781 272.318 20.0417 273.458 19.7241 274.693C19.4065 275.928 19.315 277.229 19.4558 278.509L27.6076 352.629C27.852 354.813 28.7571 356.817 30.155 358.271C31.5529 359.724 33.3487 360.528 35.2091 360.533H158.448C159.538 360.533 160.616 360.257 161.609 359.725C162.602 359.193 163.488 358.416 164.208 357.446C164.927 356.476 165.463 355.335 165.781 354.101C166.099 352.866 166.19 351.565 166.049 350.285L157.895 276.165C157.651 273.981 156.746 271.976 155.348 270.523C153.95 269.069 152.154 268.265 150.293 268.26H27.0572Z" fill="#404040"/>
<path d="M239.394 454.3H112.322C108.893 454.3 106.114 457.59 106.114 461.65V461.65C106.114 465.71 108.893 469 112.322 469H239.394C242.822 469 245.602 465.71 245.602 461.65V461.65C245.602 457.59 242.822 454.3 239.394 454.3Z" fill="#FFF8E7"/>
<path d="M239.394 469.747H112.323C110.509 469.747 108.769 468.894 107.487 467.375C106.204 465.857 105.484 463.797 105.484 461.65C105.484 459.502 106.204 457.443 107.487 455.924C108.769 454.405 110.509 453.552 112.323 453.552H239.394C241.208 453.552 242.947 454.405 244.23 455.924C245.512 457.443 246.233 459.502 246.233 461.65C246.233 463.797 245.512 465.857 244.23 467.375C242.947 468.894 241.208 469.747 239.394 469.747ZM112.323 455.049C111.59 455.049 110.865 455.22 110.188 455.552C109.512 455.884 108.897 456.37 108.379 456.983C107.861 457.596 107.451 458.324 107.17 459.125C106.89 459.926 106.746 460.785 106.746 461.652C106.746 462.519 106.89 463.378 107.17 464.179C107.451 464.98 107.861 465.708 108.379 466.321C108.897 466.934 109.512 467.42 110.188 467.752C110.865 468.084 111.59 468.255 112.323 468.255H239.394C240.126 468.255 240.851 468.084 241.528 467.752C242.205 467.42 242.819 466.934 243.337 466.321C243.855 465.708 244.266 464.98 244.546 464.179C244.826 463.378 244.97 462.519 244.97 461.652C244.97 460.785 244.826 459.926 244.546 459.125C244.266 458.324 243.855 457.596 243.337 456.983C242.819 456.37 242.205 455.884 241.528 455.552C240.851 455.22 240.126 455.049 239.394 455.049H112.323Z" fill="#404040"/>
<path d="M96.8086 689.75L95.569 689.467L114.944 461.508L116.183 461.791L96.8086 689.75Z" fill="#494949"/>
<path d="M158.439 361.184L157.188 361.381L168.507 461.751L169.758 461.553L158.439 361.184Z" fill="#494949"/>
<path d="M169.65 454.3H42.5784C39.1499 454.3 36.3706 457.59 36.3706 461.65V461.65C36.3706 465.71 39.1499 469 42.5784 469H169.65C173.079 469 175.858 465.71 175.858 461.65V461.65C175.858 457.59 173.079 454.3 169.65 454.3Z" fill="#404040"/>
<path opacity="0.8" d="M169.65 454.3H42.5784C39.1499 454.3 36.3706 457.59 36.3706 461.65V461.65C36.3706 465.71 39.1499 469 42.5784 469H169.65C173.079 469 175.858 465.71 175.858 461.65V461.65C175.858 457.59 173.079 454.3 169.65 454.3Z" fill="#FFF8E7"/>
<path d="M169.65 469.747H42.5756C40.7617 469.747 39.0222 468.894 37.7397 467.375C36.4571 465.857 35.7366 463.797 35.7366 461.65C35.7366 459.502 36.4571 457.443 37.7397 455.924C39.0222 454.405 40.7617 453.552 42.5756 453.552H169.648C171.461 453.552 173.201 454.405 174.483 455.924C175.766 457.443 176.487 459.502 176.487 461.65C176.487 463.797 175.766 465.857 174.483 467.375C173.201 468.894 171.461 469.747 169.648 469.747H169.65ZM42.5756 455.049C41.0966 455.049 39.6781 455.745 38.6323 456.983C37.5865 458.221 36.999 459.901 36.999 461.652C36.999 463.403 37.5865 465.083 38.6323 466.321C39.6781 467.559 41.0966 468.255 42.5756 468.255H169.648C171.127 468.255 172.545 467.559 173.591 466.321C174.637 465.083 175.224 463.403 175.224 461.652C175.224 459.901 174.637 458.221 173.591 456.983C172.545 455.745 171.127 455.049 169.648 455.049H42.5756Z" fill="#404040"/>
<path d="M151.479 361.28H28.2401C26.2252 361.28 24.2792 360.412 22.7653 358.837C21.2514 357.263 20.2731 355.09 20.0131 352.725L11.8613 278.604C11.7088 277.219 11.8078 275.811 12.1515 274.474C12.4952 273.138 13.0758 271.903 13.8545 270.853C14.6332 269.804 15.5921 268.963 16.6672 268.387C17.7423 267.81 18.9088 267.512 20.0889 267.513H143.328C145.342 267.513 147.288 268.381 148.802 269.955C150.316 271.529 151.294 273.702 151.555 276.067L159.706 350.187C159.859 351.573 159.76 352.981 159.416 354.318C159.073 355.654 158.492 356.889 157.713 357.939C156.935 358.988 155.976 359.83 154.901 360.406C153.825 360.982 152.659 361.28 151.479 361.28Z" fill="#404040"/>
<path opacity="0.8" d="M151.479 361.28H28.2401C26.2252 361.28 24.2792 360.412 22.7653 358.837C21.2514 357.263 20.2731 355.09 20.0131 352.725L11.8613 278.604C11.7088 277.219 11.8078 275.811 12.1515 274.474C12.4952 273.138 13.0758 271.903 13.8545 270.853C14.6332 269.804 15.5921 268.963 16.6672 268.387C17.7423 267.81 18.9088 267.512 20.0889 267.513H143.328C145.342 267.513 147.288 268.381 148.802 269.955C150.316 271.529 151.294 273.702 151.555 276.067L159.706 350.187C159.859 351.573 159.76 352.981 159.416 354.318C159.073 355.654 158.492 356.889 157.713 357.939C156.935 358.988 155.976 359.83 154.901 360.406C153.825 360.982 152.659 361.28 151.479 361.28Z" fill="#FFF8E7"/>
<path d="M151.479 362.028H28.24C26.0731 362.022 23.9816 361.085 22.3535 359.392C20.7254 357.699 19.6714 355.365 19.3869 352.821L11.235 278.702C11.0711 277.211 11.1776 275.696 11.5475 274.258C11.9174 272.819 12.5421 271.491 13.38 270.361C14.2179 269.232 15.2496 268.327 16.4064 267.706C17.5631 267.086 18.8183 266.766 20.0881 266.765H143.327C145.494 266.771 147.585 267.707 149.214 269.4C150.842 271.093 151.896 273.428 152.181 275.972L160.333 350.092C160.496 351.583 160.39 353.098 160.02 354.536C159.65 355.974 159.025 357.302 158.187 358.432C157.349 359.562 156.317 360.467 155.16 361.087C154.004 361.707 152.749 362.027 151.479 362.028ZM20.0881 268.26C18.9979 268.26 17.9202 268.535 16.927 269.068C15.9338 269.6 15.0479 270.377 14.3286 271.347C13.6092 272.317 13.0728 273.458 12.7553 274.692C12.4378 275.927 12.3464 277.228 12.4873 278.508L20.6385 352.629C20.8831 354.813 21.7883 356.817 23.1861 358.27C24.584 359.724 26.3796 360.528 28.24 360.533H151.479C152.569 360.533 153.647 360.257 154.64 359.725C155.633 359.193 156.519 358.416 157.238 357.446C157.958 356.476 158.494 355.335 158.812 354.101C159.13 352.866 159.221 351.565 159.08 350.285L150.928 276.165C150.684 273.981 149.779 271.976 148.381 270.522C146.983 269.069 145.187 268.265 143.327 268.26H20.0881Z" fill="#404040"/>
<path d="M402.529 288.13C403.87 288.13 404.957 286.843 404.957 285.255C404.957 283.668 403.87 282.381 402.529 282.381C401.188 282.381 400.102 283.668 400.102 285.255C400.102 286.843 401.188 288.13 402.529 288.13Z" fill="#FFF8E7"/>
<path d="M567.161 355.593L556.115 283.225C555.766 281.954 555.085 280.846 554.171 280.06C553.257 279.274 552.157 278.851 551.027 278.851H470.02C469.176 278.851 468.343 279.087 467.591 279.541C466.838 279.995 466.187 280.654 465.691 281.463C465.195 282.272 464.867 283.209 464.736 284.197C464.604 285.184 464.672 286.195 464.933 287.146L475.979 359.514C476.328 360.785 477.009 361.894 477.922 362.679C478.836 363.465 479.937 363.889 481.066 363.889H562.074C562.918 363.889 563.751 363.652 564.503 363.198C565.256 362.744 565.907 362.085 566.403 361.276C566.899 360.467 567.227 359.53 567.358 358.542C567.49 357.555 567.423 356.544 567.161 355.593Z" fill="#FFF8E7"/>
<path d="M562.073 364.634H481.066C479.803 364.637 478.571 364.165 477.549 363.286C476.527 362.407 475.767 361.167 475.378 359.744L475.357 359.645L464.318 287.326C464.033 286.265 463.964 285.139 464.116 284.04C464.268 282.941 464.637 281.9 465.192 281.002C465.748 280.104 466.474 279.373 467.313 278.869C468.151 278.365 469.078 278.103 470.019 278.103H551.026C552.289 278.1 553.521 278.572 554.543 279.451C555.565 280.33 556.325 281.57 556.713 282.994L556.735 283.092L567.774 355.411C568.059 356.473 568.127 357.598 567.975 358.697C567.823 359.795 567.455 360.836 566.899 361.735C566.344 362.633 565.618 363.364 564.779 363.867C563.941 364.371 563.014 364.634 562.073 364.634ZM476.591 359.328C476.904 360.44 477.504 361.406 478.308 362.091C479.111 362.775 480.076 363.142 481.065 363.139H562.073C562.818 363.14 563.552 362.931 564.216 362.531C564.88 362.13 565.454 361.55 565.891 360.836C566.329 360.122 566.618 359.296 566.734 358.425C566.85 357.554 566.791 356.663 566.56 355.825L566.539 355.726L555.5 283.41C555.188 282.298 554.587 281.332 553.784 280.648C552.981 279.963 552.016 279.596 551.026 279.598H470.02C469.275 279.598 468.541 279.807 467.877 280.208C467.214 280.608 466.64 281.189 466.202 281.902C465.764 282.616 465.476 283.442 465.36 284.313C465.243 285.184 465.303 286.076 465.534 286.914L465.554 287.012L476.591 359.328Z" fill="#404040"/>
<path d="M564.258 359.609L552.707 285.422C552.524 284.755 552.167 284.174 551.687 283.762C551.208 283.35 550.631 283.128 550.038 283.128H471.701C471.258 283.128 470.821 283.252 470.427 283.49C470.032 283.728 469.691 284.074 469.431 284.498C469.17 284.922 468.999 285.413 468.93 285.931C468.86 286.449 468.896 286.979 469.033 287.478L480.016 359.609H564.258Z" fill="#FFF8E7"/>
<path d="M565.015 360.357H479.488L468.419 287.659C468.259 287.049 468.222 286.404 468.312 285.775C468.401 285.146 468.614 284.551 468.933 284.037C469.253 283.523 469.67 283.105 470.151 282.818C470.632 282.53 471.163 282.38 471.702 282.38H550.039C550.765 282.379 551.473 282.65 552.06 283.155C552.648 283.66 553.085 284.373 553.308 285.191L553.328 285.287L565.015 360.357ZM480.544 358.862H563.5L552.098 285.609C551.951 285.102 551.674 284.662 551.305 284.351C550.937 284.04 550.495 283.874 550.042 283.875H471.7C471.357 283.875 471.019 283.971 470.713 284.156C470.407 284.34 470.142 284.608 469.941 284.937C469.739 285.266 469.606 285.646 469.552 286.048C469.499 286.449 469.526 286.86 469.633 287.247L469.653 287.345L480.544 358.862Z" fill="#404040"/>
<path d="M517.906 317.443C517.906 314.462 517.125 311.554 515.67 309.121C514.216 306.687 512.16 304.848 509.785 303.856L513.124 294.215C517.716 296.263 521.556 300.155 523.974 305.211C526.392 310.267 527.236 316.167 526.357 321.884C525.478 327.6 522.933 332.77 519.166 336.494C515.398 340.217 510.646 342.257 505.739 342.258V331.85C508.966 331.85 512.061 330.332 514.343 327.63C516.625 324.928 517.906 321.264 517.906 317.443Z" fill="#404040"/>
<path d="M484.779 317.443H493.569C493.569 321.264 494.851 324.928 497.133 327.63C499.415 330.332 502.51 331.85 505.738 331.85V342.258C500.179 342.257 494.848 339.643 490.918 334.989C486.988 330.335 484.779 324.024 484.779 317.443Z" fill="#FCB914"/>
<path opacity="0.5" d="M484.779 317.442C484.779 311.82 486.392 306.364 489.352 301.968C492.313 297.572 496.446 294.495 501.075 293.242L502.564 303.531C499.982 304.357 497.701 306.168 496.075 308.682C494.449 311.197 493.567 314.275 493.566 317.442H484.779Z" fill="#FCB914"/>
<path opacity="0.2" d="M501.075 293.243C505.085 292.167 509.273 292.505 513.123 294.214L509.784 303.855C507.46 302.889 504.943 302.776 502.564 303.53L501.075 293.243Z" fill="#FCB914"/>
<path d="M605.136 357.833H479.057C477.689 357.833 476.579 359.146 476.579 360.767C476.579 362.387 477.689 363.701 479.057 363.701H605.136C606.504 363.701 607.614 362.387 607.614 360.767C607.614 359.146 606.504 357.833 605.136 357.833Z" fill="#FFF8E7"/>
<path d="M605.136 364.448H479.057C478.232 364.448 477.441 364.06 476.858 363.37C476.275 362.679 475.947 361.743 475.947 360.767C475.947 359.79 476.275 358.854 476.858 358.164C477.441 357.473 478.232 357.085 479.057 357.085H605.136C605.96 357.085 606.751 357.473 607.334 358.164C607.917 358.854 608.245 359.79 608.245 360.767C608.245 361.743 607.917 362.679 607.334 363.37C606.751 364.06 605.96 364.448 605.136 364.448ZM479.057 358.58C478.567 358.58 478.097 358.81 477.751 359.22C477.404 359.631 477.21 360.187 477.21 360.767C477.21 361.347 477.404 361.903 477.751 362.313C478.097 362.723 478.567 362.953 479.057 362.953H605.136C605.626 362.953 606.095 362.723 606.442 362.313C606.788 361.903 606.983 361.347 606.983 360.767C606.983 360.187 606.788 359.631 606.442 359.22C606.095 358.81 605.626 358.58 605.136 358.58H479.057Z" fill="#404040"/>
<path d="M573.915 206.078C574.052 206.057 575.568 235.842 604.793 233.246C625.025 231.452 632.239 206.036 632.702 206.036C630.521 205.487 626.848 204.691 625.879 204.076C622.693 202.05 618.155 199.941 617.128 192.615C616.537 188.394 617.54 166.794 617.232 162.523L586.771 170.73C587.205 179.752 590.243 200.666 579.597 204.368C577.824 204.98 575.916 205.544 573.915 206.078Z" fill="#E98862"/>
<path d="M587.626 184.801C599.891 185.922 615.635 179.76 618.599 160.382L621.274 142.895C624.241 123.517 618.046 105.965 602.636 102.66C587.226 99.3553 573.305 112.594 570.341 131.972L569.157 139.713C568.789 142.379 568.575 145.071 568.517 147.772C568.319 154.908 568.041 165.762 571.023 173.736C573.839 181.266 579.79 184.085 587.626 184.801Z" fill="#E98862"/>
<path d="M615.132 101.671C610.263 99.8733 605.212 98.8566 600.115 98.6476C599.621 96.3443 598.521 94.5537 596.902 93.8057C594.208 92.5591 590.916 94.5664 588.727 98.4346C587.508 96.2255 585.859 94.2346 583.672 93.4275C577.64 91.2035 577.34 101.464 577.34 101.464C577.34 101.464 567.775 90.2887 567.476 104.543C567.114 121.788 569.79 126.845 571.743 128.122C575.6 130.644 578.471 130.215 579.997 133.927C584.619 145.16 580.089 176.802 585.437 180.763C593.63 186.833 610.411 187.041 615.86 186.581C617.956 186.404 619.918 183.527 620.8 181.269C623.651 173.98 630.009 157.455 631.778 150.621C635.045 138.006 634.799 109.274 615.132 101.671Z" fill="#404040"/>
<path d="M581.776 169.458C586.51 168.85 589.792 162.364 589.279 156.762C588.767 151.16 584.647 148.564 579.915 149.172L577.822 153.239L577.708 169.979L581.776 169.458Z" fill="#E98862"/>
<path d="M660.81 376.355L660.957 376.365C660.957 376.365 660.851 373.024 660.81 376.355Z" fill="#333333"/>
<path d="M531.899 271.984C532.823 284.832 537.316 364.993 538.204 380.819H660.602C661.297 366.545 664.398 304.13 667.021 276.218C669.523 249.582 674.434 236.246 670.834 228.372C664.952 215.502 648.88 208.066 637.921 206.309C631.23 205.236 629.85 204.467 627.122 204.467H579.996C575.514 204.467 546.897 209.58 541.031 214.685C524.793 228.82 529.939 244.756 531.899 271.984Z" fill="#FCB914"/>
<path d="M686.736 379.98C690.336 379.98 693.883 378.95 697.074 376.978C700.266 375.005 703.008 372.149 705.067 368.652C707.125 365.155 708.44 361.121 708.898 356.893C709.357 352.665 708.945 348.368 707.699 344.369C706.437 340.309 676.79 247.365 671.147 230.142L629.359 250.189C632.532 259.873 644.028 296.575 653.265 326.141L637.92 324.167L633.09 376.773L684.317 379.824C685.121 379.928 685.928 379.98 686.736 379.98Z" fill="#FCB914"/>
<path d="M662.889 276.758L659.881 380.806L660.695 380.839L663.702 276.791L662.889 276.758Z" fill="#404040"/>
<path d="M514.194 379.98C510.594 379.98 507.047 378.95 503.856 376.978C500.664 375.005 497.922 372.149 495.864 368.652C493.805 365.155 492.49 361.121 492.032 356.893C491.574 352.665 491.985 348.369 493.231 344.37C494.493 340.309 525.382 246.955 531.025 229.733L571.571 250.19C568.398 259.873 556.901 296.576 547.665 326.142L563.01 324.168L567.84 376.774L516.612 379.825C515.809 379.928 515.002 379.98 514.194 379.98Z" fill="#FCB914"/>
<path d="M547.569 319.972C547.523 319.972 547.477 319.964 547.434 319.948C547.378 319.927 547.326 319.893 547.281 319.848C547.236 319.803 547.199 319.749 547.172 319.687C547.145 319.625 547.129 319.558 547.124 319.488C547.119 319.419 547.125 319.35 547.143 319.283L557.992 278.848C558.027 278.714 558.107 278.602 558.212 278.538C558.317 278.473 558.44 278.461 558.553 278.503C558.666 278.545 558.76 278.639 558.814 278.764C558.869 278.888 558.879 279.034 558.844 279.167L547.995 319.604C547.966 319.711 547.909 319.804 547.832 319.871C547.756 319.937 547.663 319.972 547.569 319.972Z" fill="#404040"/>
<path d="M514.535 639.362L517.147 688.036L461.005 688.353C461.005 688.353 458.144 676.135 471.302 670.92C478.616 668.02 483.392 658.273 481.899 646.246L514.535 639.362Z" fill="#383838"/>
<path opacity="0.17" d="M514.535 639.362L517.147 688.036L461.005 688.353C461.005 688.353 458.144 676.135 471.302 670.92C478.616 668.02 483.392 658.273 481.899 646.246L514.535 639.362Z" fill="#404040"/>
<path d="M575.182 639.362L585.494 676.092L546.305 688.227L524.125 688.353C524.125 688.353 521.264 676.135 534.421 670.92C541.736 668.02 544.039 658.273 542.547 646.246L575.182 639.362Z" fill="#383838"/>
<g opacity="0.75">
<path d="M579.066 419.99L520.352 668.669L471.552 653.306L524.909 402.94L579.066 419.99Z" fill="#FFF8E7"/>
</g>
<path d="M579.066 419.99L520.352 668.669L471.552 653.306L524.909 402.94L579.066 419.99Z" fill="#383838"/>
<g opacity="0.52">
<path d="M579.066 419.99L520.352 668.669L471.552 653.306L524.909 402.94L579.066 419.99Z" fill="#FFF8E7"/>
</g>
<path d="M496.327 380.656C492.269 380.665 488.252 381.624 484.508 383.478C480.764 385.332 477.366 388.044 474.511 391.459C471.655 394.873 469.398 398.922 467.869 403.373C466.34 407.824 465.57 412.589 465.602 417.394C465.637 423.283 466.881 429.073 469.228 434.265L538.245 668.777L586.216 650.11L534.898 453.555H629.152C637.395 453.554 645.307 449.717 651.182 442.871C657.056 436.025 660.422 426.719 660.553 416.961L661.044 380.284L496.327 380.656Z" fill="#383838"/>
<path opacity="0.64" d="M496.327 380.656C492.269 380.665 488.252 381.624 484.508 383.478C480.764 385.332 477.366 388.044 474.511 391.459C471.655 394.873 469.398 398.922 467.869 403.373C466.34 407.824 465.57 412.589 465.602 417.394C465.637 423.283 466.881 429.073 469.228 434.265L538.245 668.777L586.216 650.11L534.898 453.555H629.152C637.395 453.554 645.307 449.717 651.182 442.871C657.056 436.025 660.422 426.719 660.553 416.961L661.044 380.284L496.327 380.656Z" fill="#FFF8E7"/>
<path d="M443.31 689.75L442.07 689.467L467.758 461.508L468.997 461.791L443.31 689.75Z" fill="#494949"/>
<path d="M521.766 689.75L520.526 689.467L539.901 461.508L541.141 461.791L521.766 689.75Z" fill="#494949"/>
<path d="M547.452 361.28H670.691C672.706 361.28 674.652 360.412 676.166 358.838C677.68 357.263 678.659 355.09 678.919 352.725L687.071 278.605C687.223 277.22 687.124 275.812 686.78 274.475C686.436 273.139 685.856 271.904 685.077 270.855C684.298 269.805 683.34 268.964 682.265 268.388C681.19 267.811 680.023 267.513 678.843 267.513H555.604C553.589 267.513 551.643 268.381 550.129 269.956C548.615 271.53 547.637 273.702 547.377 276.068L539.225 350.188C539.073 351.574 539.172 352.982 539.516 354.318C539.859 355.655 540.44 356.889 541.218 357.939C541.997 358.989 542.956 359.83 544.031 360.406C545.106 360.982 546.272 361.28 547.452 361.28Z" fill="#FFF8E7"/>
<path d="M540.744 358.432C539.906 357.302 539.281 355.974 538.911 354.536C538.541 353.098 538.435 351.583 538.598 350.092L546.75 275.972C547.035 273.428 548.089 271.094 549.717 269.401C551.345 267.708 553.436 266.771 555.603 266.765H678.842C680.112 266.766 681.367 267.086 682.524 267.706C683.68 268.327 684.712 269.232 685.55 270.361C686.388 271.491 687.013 272.819 687.383 274.258C687.752 275.696 687.859 277.211 687.695 278.702L679.544 352.821C679.259 355.365 678.205 357.699 676.577 359.392C674.949 361.085 672.857 362.022 670.69 362.028H547.453C546.183 362.027 544.928 361.707 543.771 361.087C542.614 360.467 541.582 359.562 540.744 358.432ZM555.604 268.26C553.744 268.265 551.948 269.069 550.55 270.523C549.152 271.976 548.247 273.981 548.003 276.165L539.851 350.285C539.71 351.565 539.802 352.866 540.119 354.101C540.437 355.335 540.973 356.476 541.693 357.446C542.412 358.416 543.298 359.193 544.291 359.725C545.285 360.257 546.362 360.533 547.453 360.533H670.691C672.552 360.528 674.347 359.724 675.745 358.271C677.143 356.817 678.048 354.813 678.293 352.629L686.445 278.509C686.585 277.229 686.494 275.928 686.176 274.693C685.859 273.458 685.322 272.318 684.603 271.348C683.883 270.378 682.998 269.601 682.004 269.068C681.011 268.536 679.933 268.26 678.843 268.26H555.604Z" fill="#404040"/>
<path d="M466.506 469H593.578C597.007 469 599.786 465.709 599.786 461.65V461.649C599.786 457.589 597.007 454.299 593.578 454.299H466.506C463.078 454.299 460.299 457.589 460.299 461.649V461.65C460.299 465.709 463.078 469 466.506 469Z" fill="#FFF8E7"/>
<path d="M459.668 461.649C459.671 459.503 460.392 457.446 461.674 455.929C462.956 454.411 464.694 453.557 466.506 453.554H593.578C594.476 453.554 595.365 453.764 596.195 454.171C597.024 454.578 597.778 455.174 598.413 455.926C599.049 456.678 599.552 457.571 599.896 458.553C600.24 459.535 600.417 460.588 600.417 461.652C600.417 462.715 600.24 463.768 599.896 464.75C599.552 465.733 599.049 466.625 598.413 467.377C597.778 468.129 597.024 468.726 596.195 469.133C595.365 469.54 594.476 469.749 593.578 469.749H466.506C464.693 469.746 462.955 468.892 461.673 467.373C460.391 465.855 459.67 463.796 459.668 461.649ZM466.508 455.047C465.029 455.047 463.611 455.743 462.565 456.981C461.519 458.219 460.932 459.898 460.932 461.649C460.932 463.401 461.519 465.08 462.565 466.318C463.611 467.557 465.029 468.252 466.508 468.252H593.578C595.057 468.252 596.475 467.557 597.521 466.318C598.567 465.08 599.154 463.401 599.154 461.649C599.154 459.898 598.567 458.219 597.521 456.981C596.475 455.743 595.057 455.047 593.578 455.047H466.508Z" fill="#404040"/>
<path d="M681.236 689.75L682.476 689.467L663.101 461.508L661.861 461.791L681.236 689.75Z" fill="#494949"/>
<path d="M609.092 689.75L610.331 689.467L590.957 461.508L589.717 461.791L609.092 689.75Z" fill="#494949"/>
<path d="M547.454 361.177L536.135 461.546L537.387 461.744L548.705 361.375L547.454 361.177Z" fill="#494949"/>
<path d="M677.368 361.177L666.049 461.547L667.301 461.744L678.619 361.375L677.368 361.177Z" fill="#494949"/>
<path d="M536.25 469H663.322C666.751 469 669.53 465.709 669.53 461.65V461.649C669.53 457.589 666.751 454.299 663.322 454.299H536.25C532.822 454.299 530.043 457.589 530.043 461.649V461.65C530.043 465.709 532.822 469 536.25 469Z" fill="#404040"/>
<path opacity="0.8" d="M536.25 469H663.322C666.751 469 669.53 465.709 669.53 461.65V461.649C669.53 457.589 666.751 454.299 663.322 454.299H536.25C532.822 454.299 530.043 457.589 530.043 461.649V461.65C530.043 465.709 532.822 469 536.25 469Z" fill="#FFF8E7"/>
<path d="M529.411 461.649C529.414 459.503 530.135 457.445 531.417 455.928C532.699 454.41 534.437 453.557 536.25 453.554H663.322C665.136 453.554 666.876 454.408 668.158 455.926C669.441 457.445 670.161 459.504 670.161 461.652C670.161 463.799 669.441 465.859 668.158 467.377C666.876 468.896 665.136 469.749 663.322 469.749H536.25C534.437 469.747 532.698 468.892 531.416 467.374C530.134 465.855 529.413 463.797 529.411 461.649ZM536.25 455.047C534.771 455.047 533.353 455.743 532.307 456.981C531.261 458.219 530.674 459.898 530.674 461.649C530.674 463.401 531.261 465.08 532.307 466.318C533.353 467.557 534.771 468.252 536.25 468.252H663.322C664.801 468.252 666.22 467.557 667.266 466.318C668.311 465.08 668.899 463.401 668.899 461.649C668.899 459.898 668.311 458.219 667.266 456.981C666.22 455.743 664.801 455.047 663.322 455.047H536.25Z" fill="#404040"/>
<path d="M554.422 361.28H677.66C679.675 361.28 681.622 360.412 683.136 358.838C684.65 357.263 685.628 355.091 685.889 352.725L694.04 278.605C694.192 277.22 694.093 275.812 693.75 274.475C693.406 273.139 692.825 271.904 692.047 270.855C691.268 269.805 690.309 268.964 689.234 268.388C688.159 267.811 686.993 267.513 685.813 267.513H562.573C560.559 267.514 558.613 268.382 557.1 269.956C555.586 271.531 554.608 273.703 554.348 276.068L546.196 350.188C546.044 351.574 546.143 352.981 546.486 354.318C546.83 355.654 547.41 356.888 548.189 357.938C548.967 358.988 549.926 359.829 551.001 360.405C552.076 360.982 553.242 361.28 554.422 361.28Z" fill="#404040"/>
<path opacity="0.8" d="M554.422 361.28H677.66C679.675 361.28 681.622 360.412 683.136 358.838C684.65 357.263 685.628 355.091 685.889 352.725L694.04 278.605C694.192 277.22 694.093 275.812 693.75 274.475C693.406 273.139 692.825 271.904 692.047 270.855C691.268 269.805 690.309 268.964 689.234 268.388C688.159 267.811 686.993 267.513 685.813 267.513H562.573C560.559 267.514 558.613 268.382 557.1 269.956C555.586 271.531 554.608 273.703 554.348 276.068L546.196 350.188C546.044 351.574 546.143 352.981 546.486 354.318C546.83 355.654 547.41 356.888 548.189 357.938C548.967 358.988 549.926 359.829 551.001 360.405C552.076 360.982 553.242 361.28 554.422 361.28Z" fill="#FFF8E7"/>
<path d="M547.713 358.432C546.876 357.302 546.251 355.974 545.881 354.536C545.511 353.098 545.404 351.583 545.567 350.092L553.72 275.972C554.004 273.428 555.058 271.093 556.686 269.4C558.315 267.707 560.406 266.771 562.573 266.765H685.812C687.082 266.766 688.337 267.086 689.493 267.706C690.65 268.327 691.682 269.232 692.52 270.361C693.358 271.491 693.982 272.819 694.352 274.258C694.722 275.696 694.829 277.211 694.665 278.702L686.513 352.821C686.229 355.365 685.175 357.699 683.546 359.393C681.918 361.086 679.827 362.022 677.66 362.028H554.422C553.152 362.027 551.897 361.707 550.74 361.087C549.583 360.467 548.551 359.562 547.713 358.432ZM562.574 268.26C560.713 268.265 558.917 269.069 557.519 270.522C556.121 271.976 555.216 273.981 554.972 276.165L546.82 350.285C546.68 351.565 546.771 352.866 547.089 354.101C547.406 355.335 547.943 356.476 548.662 357.446C549.381 358.416 550.267 359.193 551.261 359.725C552.254 360.257 553.331 360.533 554.422 360.533H677.66C679.521 360.528 681.317 359.724 682.714 358.271C684.112 356.817 685.018 354.813 685.262 352.629L693.413 278.508C693.554 277.228 693.463 275.927 693.145 274.692C692.828 273.458 692.291 272.317 691.572 271.347C690.853 270.377 689.967 269.6 688.973 269.068C687.98 268.535 686.903 268.26 685.812 268.26H562.574Z" fill="#404040"/>
</svg>
