<svg width="39" height="39" viewBox="0 0 39 39" fill="none" xmlns="http://www.w3.org/2000/svg">
<circle cx="19.6897" cy="19.1379" r="19.1379" fill="white"/>
<path d="M28.25 15.6023C28.2404 14.8776 28.1047 14.1601 27.8491 13.4818C27.6274 12.9098 27.2889 12.3902 26.855 11.9564C26.4212 11.5226 25.9017 11.184 25.3296 10.9623C24.6601 10.711 23.9528 10.5751 23.2378 10.5604C22.3173 10.5193 22.0254 10.5078 19.6887 10.5078C17.3519 10.5078 17.0524 10.5078 16.1386 10.5604C15.4239 10.5752 14.717 10.7111 14.0478 10.9623C13.4756 11.1838 12.956 11.5224 12.5221 11.9562C12.0883 12.39 11.7498 12.9097 11.5283 13.4818C11.2764 14.1508 11.1408 14.858 11.1273 15.5727C11.0862 16.4942 11.0737 16.786 11.0737 19.1228C11.0737 21.4595 11.0737 21.758 11.1273 22.6728C11.1417 23.3886 11.2766 24.0948 11.5283 24.7656C11.7501 25.3376 12.0889 25.857 12.5229 26.2906C12.9569 26.7243 13.4766 27.0627 14.0487 27.2841C14.7161 27.5455 15.4232 27.6912 16.1395 27.7147C17.061 27.7559 17.3529 27.7683 19.6896 27.7683C22.0264 27.7683 22.3259 27.7683 23.2397 27.7147C23.9547 27.7006 24.662 27.5651 25.3315 27.3138C25.9034 27.0919 26.4228 26.7532 26.8566 26.3194C27.2904 25.8856 27.6291 25.3662 27.851 24.7943C28.1027 24.1244 28.2376 23.4183 28.2519 22.7015C28.2931 21.781 28.3055 21.4892 28.3055 19.1515C28.3036 16.8147 28.3036 16.5181 28.25 15.6023ZM19.6829 23.5417C17.239 23.5417 15.2592 21.5619 15.2592 19.118C15.2592 16.6741 17.239 14.6942 19.6829 14.6942C20.8562 14.6942 21.9814 15.1603 22.811 15.9899C23.6406 16.8195 24.1067 17.9447 24.1067 19.118C24.1067 20.2912 23.6406 21.4164 22.811 22.246C21.9814 23.0756 20.8562 23.5417 19.6829 23.5417ZM24.2827 15.5621C24.1472 15.5623 24.013 15.5357 23.8878 15.4839C23.7626 15.4321 23.6489 15.3561 23.553 15.2603C23.4572 15.1645 23.3813 15.0507 23.3295 14.9255C23.2777 14.8003 23.2511 14.6661 23.2512 14.5306C23.2512 14.3952 23.2779 14.2611 23.3297 14.136C23.3815 14.0109 23.4574 13.8973 23.5532 13.8015C23.6489 13.7058 23.7626 13.6298 23.8877 13.578C24.0128 13.5262 24.1469 13.4995 24.2823 13.4995C24.4177 13.4995 24.5517 13.5262 24.6768 13.578C24.8019 13.6298 24.9156 13.7058 25.0113 13.8015C25.1071 13.8973 25.183 14.0109 25.2348 14.136C25.2866 14.2611 25.3133 14.3952 25.3133 14.5306C25.3133 15.1009 24.8521 15.5621 24.2827 15.5621Z" fill="#3E5693"/>
<path d="M19.6831 21.9908C21.2702 21.9908 22.5567 20.7042 22.5567 19.1172C22.5567 17.5302 21.2702 16.2437 19.6831 16.2437C18.0961 16.2437 16.8096 17.5302 16.8096 19.1172C16.8096 20.7042 18.0961 21.9908 19.6831 21.9908Z" fill="#3E5693"/>
</svg>
