<svg width="87" height="87" viewBox="0 0 87 87" fill="none" xmlns="http://www.w3.org/2000/svg">
<circle cx="43.5" cy="43.5" r="43.5" fill="#E7EAF1"/>
<path d="M43.0988 45.2749C43.7014 45.2749 44.19 44.7832 44.19 44.1766C44.19 43.5701 43.7014 43.0784 43.0988 43.0784C42.4961 43.0784 42.0075 43.5701 42.0075 44.1766C42.0075 44.7832 42.4961 45.2749 43.0988 45.2749Z" fill="#3E5693" stroke="#3E5693" stroke-width="4.365" stroke-linecap="round" stroke-linejoin="round"/>
<path d="M23.82 45.2748C23.82 47.967 24.3469 50.6328 25.3706 53.12C26.3943 55.6073 27.8947 57.8672 29.7862 59.7709C31.6778 61.6745 33.9233 63.1846 36.3947 64.2148C38.8661 65.2451 41.515 65.7753 44.19 65.7753M23.82 45.2748C23.82 42.5827 24.3469 39.9169 25.3706 37.4296C26.3943 34.9424 27.8947 32.6824 29.7862 30.7788C31.6778 28.8751 33.9233 27.3651 36.3947 26.3348C38.8661 25.3046 41.515 24.7743 44.19 24.7743M23.82 45.2748H18M44.19 65.7753C46.865 65.7753 49.5139 65.2451 51.9853 64.2148C54.4567 63.1846 56.7022 61.6745 58.5938 59.7709C60.4853 57.8672 61.9857 55.6073 63.0094 53.12C64.0331 50.6328 64.56 47.967 64.56 45.2748M44.19 65.7753V71.6326M64.56 45.2748C64.56 42.5827 64.0331 39.9169 63.0094 37.4296C61.9857 34.9424 60.4853 32.6824 58.5938 30.7788C56.7022 28.8751 54.4567 27.3651 51.9853 26.3348C49.5139 25.3046 46.865 24.7743 44.19 24.7743M64.56 45.2748H70.38M44.19 24.7743V18.9171" stroke="#3E5693" stroke-width="4.365" stroke-linecap="round" stroke-linejoin="round"/>
</svg>
